<svg
  className="size-6"
  width="24"
  height="24"
  viewBox="0 0 24 24"
  fill="none"
  xmlns="http://www.w3.org/2000/svg"
>
  <path 
    fill-rule="evenodd" 
    clip-rule="evenodd" 
    d="M12 2.75C6.89137 2.75 2.75 6.89137 2.75 12C2.75 17.1086 6.89137 21.25 12 21.25C17.1086 21.25 21.25 17.1086 21.25 12C21.25 6.89137 17.1086 2.75 12 2.75ZM12 1.25C18.2132 1.25 23.25 6.2868 23.25 12.5C23.25 18.7132 18.2132 23.75 12 23.75C5.7868 23.75 0.75 18.7132 0.75 12.5C0.75 6.2868 5.7868 1.25 12 1.25ZM11.25 7C11.25 6.58579 11.5858 6.25 12 6.25C12.4142 6.25 12.75 6.58579 12.75 7V12.1893L14.7197 10.2197C15.0126 9.92678 15.4874 9.92678 15.7803 10.2197C16.0732 10.5126 16.0732 10.9874 15.7803 11.2803L12.5303 14.5303C12.2374 14.8232 11.7626 14.8232 11.4697 14.5303L8.21967 11.2803C7.92678 10.9874 7.92678 10.5126 8.21967 10.2197C8.51256 9.92678 8.98744 9.92678 9.28033 10.2197L11.25 12.1893V7Z" 
    fill="currentColor"
/>
</svg>
