<svg className="size-6" width="24" height="24" viewBox="0 0 24 24" fill="none"
     xmlns="http://www.w3.org/2000/svg">
  <path fill-rule="evenodd" clip-rule="evenodd"
        d="M3 5.25C3 4.00736 4.00736 3 5.25 3H18.75C19.9926 3 21 4.00736 21 5.25V18.75C21 19.9926 19.9926 21 18.75 21H5.25C4.00736 21 3 19.9926 3 18.75V5.25ZM5.25 4.5C4.83579 4.5 4.5 4.83579 4.5 5.25V6.065L12 11.1825L19.5 6.065V5.25C19.5 4.83579 19.1642 4.5 18.75 4.5H5.25ZM19.5 8.335L12.26 13.1513C12.1077 13.2516 11.8923 13.2516 11.74 13.1513L4.5 8.335V18.75C4.5 19.1642 4.83579 19.5 5.25 19.5H18.75C19.1642 19.5 19.5 19.1642 19.5 18.75V8.335Z"
        fill="currentColor"/>
</svg>
