<svg
  className="size-6"
  width="24"
  height="24"
  viewBox="0 0 24 24"
  fill="none"
  xmlns="http://www.w3.org/2000/svg"
>
  <path
    fill-rule="evenodd"
    clip-rule="evenodd"
    d="M8.5 2.75C8.5 2.33579 8.83579 2 9.25 2H14.75C15.1642 2 15.5 2.33579 15.5 2.75V3H17.25C18.4926 3 19.5 4.00736 19.5 5.25V20.25C19.5 21.4926 18.4926 22.5 17.25 22.5H6.75C5.50736 22.5 4.5 21.4926 4.5 20.25V5.25C4.5 4.00736 5.50736 3 6.75 3H8.5V2.75ZM9.5 4.5V4H14.5V4.5C14.5 4.91421 14.1642 5.25 13.75 5.25H10.25C9.83579 5.25 9.5 4.91421 9.5 4.5ZM8 9.25C8 8.83579 8.33579 8.5 8.75 8.5H15.25C15.6642 8.5 16 8.83579 16 9.25C16 9.66421 15.6642 10 15.25 10H8.75C8.33579 10 8 9.66421 8 9.25ZM8 13.25C8 12.8358 8.33579 12.5 8.75 12.5H15.25C15.6642 12.5 16 12.8358 16 13.25C16 13.6642 15.6642 14 15.25 14H8.75C8.33579 14 8 13.6642 8 13.25ZM8.75 16.5C8.33579 16.5 8 16.8358 8 17.25C8 17.6642 8.33579 18 8.75 18H12.25C12.6642 18 13 17.6642 13 17.25C13 16.8358 12.6642 16.5 12.25 16.5H8.75Z"
    fill="currentColor"
/>
</svg>
