<svg
  className="size-6"
  width="24"
  height="24"
  viewBox="0 0 24 24"
  fill="none"
  xmlns="http://www.w3.org/2000/svg"
>
  <path
    fill-rule="evenodd"
    clip-rule="evenodd"
    d="M3 10L12 4L21 10V11.25C21 11.6642 20.6642 12 20.25 12H19.5V19.75C19.5 20.1642 19.1642 20.5 18.75 20.5H5.25C4.83579 20.5 4.5 20.1642 4.5 19.75V12H3.75C3.33579 12 3 11.6642 3 11.25V10ZM6 12.75V19H8V12.75H6ZM10 12.75V19H14V12.75H10ZM16 12.75V19H18V12.75H16ZM9.5 9.5C9.5 8.67157 10.1716 8 11 8H13C13.8284 8 14.5 8.67157 14.5 9.5C14.5 10.3284 13.8284 11 13 11H11C10.1716 11 9.5 10.3284 9.5 9.5ZM11 9.5H13V9H11V9.5Z"
    fill="currentColor"
/>
</svg>
