<svg
  className="size-6"
  width="24"
  height="24"
  viewBox="0 0 24 24"
  fill="none"
  xmlns="http://www.w3.org/2000/svg"
>
  <path
    fill-rule="evenodd"
    clip-rule="evenodd"
    d="M14.5 2C11.4624 2 9 4.46243 9 7.5C9 8.7095 9.41142 9.82054 10.1137 10.7092L2.96967 17.8536C2.82322 17.9999 2.75 18.191 2.75 18.3891V20.25C2.75 20.6642 3.08579 21 3.5 21H5.25C5.66421 21 6 20.6642 6 20.25V19.5H6.75C7.16421 19.5 7.5 19.1642 7.5 18.75V18H8.25C8.66421 18 9 17.6642 9 17.25V15.75H10.5C10.6989 15.75 10.8897 15.6768 11.0361 15.5303L11.7247 14.8417C12.5898 15.5185 13.6735 15.9 14.8375 15.9C17.8751 15.9 20.3375 13.4376 20.3375 10.4C20.3375 7.36243 17.8751 4.9 14.8375 4.9C14.0765 4.9 13.3485 5.04806 12.6846 5.32555C13.0556 4.2469 13.9543 3.41474 15.0625 3.08626C14.9024 2.4187 14.3305 2 14.5 2ZM16.75 8.25C17.4404 8.25 18 8.80964 18 9.5C18 10.1904 17.4404 10.75 16.75 10.75C16.0596 10.75 15.5 10.1904 15.5 9.5C15.5 8.80964 16.0596 8.25 16.75 8.25Z"
    fill="currentColor"
/>
</svg>
