<svg
  className="size-6"
  width="24"
  height="24"
  viewBox="0 0 24 24"
  fill="none"
  xmlns="http://www.w3.org/2000/svg"
>
  <path
    fill-rule="evenodd"
    clip-rule="evenodd"
    d="M16 2C17.6569 2 19 3.34315 19 5C19 6.65685 17.6569 8 16 8C14.3431 8 13 6.65685 13 5C13 3.34315 14.3431 2 16 2ZM3.75 13C3.75 12.5858 4.08579 12.25 4.5 12.25H11C11.6904 12.25 12.25 12.8096 12.25 13.5V14H17.5C18.7426 14 19.75 15.0074 19.75 16.25C19.75 17.1534 19.1534 17.9426 18.3165 18.2095L12.5165 20.0095C12.1837 20.1146 11.8272 20.0619 11.5345 19.8654L7.44101 17.0654L6.00887 17.6613C5.57302 17.8465 5.07763 17.6334 4.89246 17.1975C4.80769 17.0016 4.79357 16.7791 4.85242 16.5715L5.66043 13.75H4.5C4.08579 13.75 3.75 13.4142 3.75 13ZM7.30739 15.25H6.99448L6.4226 17.25L7.19276 16.9248C7.36615 16.8511 7.56334 16.8672 7.72495 16.969L12.0461 19.75L17.4977 18.0326C17.8292 17.9271 18.05 17.6098 18.05 17.25C18.05 16.8358 17.7142 16.5 17.3 16.5H11.5C11.0858 16.5 10.75 16.1642 10.75 15.75V15.5C10.75 15.3702 10.6298 15.25 10.5 15.25H7.30739Z"
    fill="currentColor"
/>
</svg>
