<svg width="105" height="32" viewBox="0 0 105 32" fill="none" xmlns="http://www.w3.org/2000/svg">
<path d="M77.391 25.1674H74.9281V24.6996H75.0531C75.3891 24.6995 75.5747 24.6124 75.6644 24.4808C75.7662 24.3271 75.8295 24.0352 75.8295 23.5756V19.3109C75.8295 18.8603 75.7444 18.5682 75.6039 18.4037L75.6019 18.4017V18.4008C75.4655 18.234 75.2281 18.1219 74.8607 18.0863L74.7474 18.0756V17.6254H76.8031L76.8412 17.6722L81.2006 23.0726V19.1615C81.2006 18.7172 81.1344 18.4424 81.0316 18.3031L81.0297 18.3002V18.2992C80.9394 18.1708 80.7577 18.0863 80.4359 18.0863H80.3109V17.6254H82.7621V18.0863H82.6371C82.2987 18.0863 82.1017 18.1676 82.0004 18.2904C81.8934 18.4201 81.8236 18.6807 81.8236 19.1117V25.1674H81.4213L81.3842 25.1215L76.434 19.0531V23.8177C76.434 24.1647 76.5035 24.3847 76.6156 24.5082L76.6635 24.5502C76.7842 24.6432 76.9775 24.6996 77.266 24.6996H77.391V25.1674Z" fill="black" stroke="black" stroke-width="0.25"/>
<path d="M70.5138 17.4451C71.6269 17.4451 72.5727 17.8236 73.3429 18.5808C74.1173 19.3381 74.5059 20.268 74.506 21.3621C74.506 22.4764 74.1156 23.4231 73.337 24.1931C72.5587 24.9628 71.6043 25.3474 70.4825 25.3474C69.3648 25.3473 68.4149 24.962 67.6407 24.1921C66.8665 23.4221 66.4786 22.4761 66.4786 21.3621C66.4787 20.2482 66.8644 19.3139 67.6359 18.5681C68.4069 17.8187 69.3692 17.4451 70.5138 17.4451ZM70.5392 17.9744C69.773 17.9744 69.156 18.2429 68.6788 18.78L68.5851 18.8914C68.0976 19.5058 67.8478 20.3295 67.8478 21.3748C67.8478 22.4201 68.0956 23.2529 68.5802 23.8845L68.7677 24.1042C69.2213 24.5816 69.7871 24.8181 70.4708 24.8181C71.2597 24.818 71.8951 24.5012 72.3859 23.8601L72.5607 23.6101C72.943 23.0092 73.1368 22.2827 73.1368 21.4246C73.1368 20.4985 72.947 19.7435 72.5753 19.1521L72.4044 18.9089C71.9217 18.2838 71.303 17.9745 70.5392 17.9744Z" fill="black" stroke="black" stroke-width="0.25"/>
<path d="M62.5125 17.4451C62.9249 17.4451 63.3701 17.5183 63.8475 17.6619H63.8465C64.1423 17.7481 64.3568 17.7869 64.4959 17.7869C64.5837 17.7868 64.6462 17.7699 64.6902 17.7439C64.7328 17.7187 64.766 17.6801 64.7899 17.6218L64.8221 17.5447H65.2606V19.9451H64.8221L64.8074 19.8376C64.7289 19.2719 64.4731 18.8247 64.0399 18.489H64.0389C63.6063 18.1469 63.0994 17.9744 62.5125 17.9744C61.8722 17.9744 61.3354 18.1972 60.8963 18.6472L60.7137 18.8542C60.2423 19.4405 60.0018 20.2046 60.0018 21.157C60.0018 22.2031 60.2793 23.0606 60.826 23.739H60.825C61.3747 24.4161 62.0575 24.7498 62.8797 24.7498C63.2785 24.7497 63.5567 24.6857 63.7313 24.575C63.8961 24.4703 63.9793 24.3172 63.9793 24.0974V23.3083C63.9793 22.8638 63.9178 22.5841 63.8201 22.4392L63.8192 22.4373C63.7347 22.3077 63.5762 22.2273 63.3016 22.2273H62.8973V21.7595H66.1004V22.2273H65.9754C65.6672 22.2273 65.4766 22.2989 65.3699 22.4119C65.2671 22.5211 65.199 22.7329 65.199 23.0847V25.1384L65.1063 25.1628C64.9238 25.2118 64.594 25.2545 64.1268 25.2917C63.6616 25.3291 63.2969 25.3474 63.035 25.3474C61.6682 25.3474 60.5845 25.0111 59.8006 24.322H59.7996C59.0203 23.633 58.6326 22.7224 58.6326 21.6042C58.6327 20.8274 58.8004 20.1229 59.1385 19.4939L59.2733 19.2634C59.6017 18.7419 60.0327 18.3197 60.5643 17.9978L60.7957 17.8679C61.3389 17.5864 61.9117 17.4451 62.5125 17.4451Z" fill="black" stroke="black" stroke-width="0.25"/>
<path d="M54.1555 21.5172H55.8605L55.0031 18.9489L54.1555 21.5172ZM58.9816 25.1676H56.1642V24.6998H56.2892C56.4876 24.6998 56.6145 24.6652 56.6887 24.6139C56.7544 24.5683 56.7921 24.5007 56.7922 24.3903C56.7922 24.3257 56.7773 24.2462 56.7433 24.152L56.7424 24.149L56.1057 22.2145H53.9348L53.467 23.5905C53.3428 23.9588 53.2874 24.2088 53.2873 24.3522C53.2873 24.4776 53.3253 24.5546 53.3859 24.6041C53.4517 24.6578 53.5643 24.696 53.7433 24.6998L53.8654 24.7028V25.1676H51.7316V24.7164L51.8391 24.7008C52.091 24.6659 52.2736 24.5845 52.3986 24.4664C52.5234 24.3484 52.6665 24.0834 52.8195 23.6412L54.8342 17.6295L54.8625 17.5446H55.7941L55.8234 17.6295L57.9367 23.9088C57.9975 24.0891 58.0586 24.2335 58.1183 24.3444C58.1782 24.4554 58.2335 24.5256 58.2814 24.5651L58.3742 24.6207C58.483 24.6702 58.6402 24.6998 58.8566 24.6998H58.9816V25.1676Z" fill="black" stroke="black" stroke-width="0.25"/>
<path d="M46.8644 21.2377H47.6349C48.1446 21.2377 48.5282 21.0922 48.8019 20.8148V20.8138C49.0812 20.5345 49.2257 20.1623 49.2257 19.684C49.2257 19.2231 49.0687 18.8601 48.7579 18.5834L48.757 18.5824C48.4491 18.3012 48.0354 18.1547 47.504 18.1547H46.8644V21.2377ZM52.0245 25.1674H50.3488L50.3107 25.1224C49.9987 24.743 49.6247 24.1942 49.1886 23.4799C48.7238 22.7286 48.3695 22.2684 48.1241 22.0765L48.1232 22.0756C47.8831 21.885 47.6198 21.7924 47.3302 21.7924H46.8644V23.6683C46.8644 24.0944 46.9252 24.3601 47.0206 24.4965L47.0587 24.5404C47.1562 24.6391 47.3179 24.6995 47.5724 24.6996H47.6974V25.1674H44.8243V24.6996H44.9493C45.2562 24.6996 45.4206 24.6191 45.4982 24.5013L45.4991 24.4994C45.5921 24.363 45.6515 24.0962 45.6515 23.6683V19.099C45.6515 18.8887 45.6374 18.7154 45.6115 18.5775C45.5852 18.4385 45.548 18.3424 45.506 18.2816L45.505 18.2806C45.4282 18.1668 45.2621 18.0863 44.9493 18.0863H44.8243V17.6254H47.9396C48.6969 17.6254 49.3159 17.8105 49.7833 18.1937C50.2554 18.5731 50.4952 19.0644 50.4952 19.6586C50.4952 20.131 50.3624 20.5345 50.09 20.8588C49.8612 21.131 49.5394 21.3384 49.1339 21.4896C49.294 21.6173 49.4501 21.771 49.6007 21.9515C49.8195 22.2047 50.0993 22.6211 50.4396 23.1937H50.4406C50.8216 23.8274 51.1109 24.2296 51.3116 24.4154L51.462 24.5336C51.6115 24.6359 51.7599 24.6899 51.9083 24.7006L52.0245 24.7084V25.1674Z" fill="black" stroke="black" stroke-width="0.25"/>
<path d="M40.2991 17.6254C41.5713 17.6254 42.6013 17.9878 43.3752 18.723C44.1517 19.4568 44.5393 20.3919 44.5393 21.5179C44.5393 22.6217 44.1732 23.5131 43.4348 24.1781C42.6965 24.843 41.6765 25.1674 40.3918 25.1674H36.7981V24.6996H36.9231C37.2192 24.6996 37.3873 24.6198 37.4739 24.4974C37.5704 24.3563 37.6311 24.0896 37.6311 23.6683V19.1244C37.6311 18.6921 37.5699 18.4241 37.4739 18.2885C37.3873 18.1662 37.2191 18.0863 36.9231 18.0863H36.7981V17.6254H40.2991ZM38.845 23.4135C38.845 23.668 38.8605 23.8786 38.8899 24.0463C38.9196 24.2154 38.9619 24.3332 39.011 24.4086C39.1004 24.5457 39.2942 24.6381 39.6526 24.6381H40.4045C41.2703 24.638 41.9387 24.3609 42.425 23.8158L42.5969 23.599C42.972 23.0714 43.1643 22.3846 43.1643 21.5297C43.1642 20.4916 42.8884 19.6765 42.3499 19.0707V19.0697C41.8183 18.4634 41.0755 18.1547 40.1057 18.1547H38.845V23.4135Z" fill="black" stroke="black" stroke-width="0.25"/>
<path d="M102.379 13.0127H99.468V12.5449H99.593C99.9419 12.5449 100.124 12.4599 100.204 12.3398L100.205 12.3379L100.24 12.2793C100.317 12.1285 100.364 11.8795 100.364 11.5137V9.25684L98.8293 6.86914C98.5725 6.46734 98.3724 6.22107 98.2297 6.11133C98.0952 6.00797 97.8993 5.94339 97.6292 5.93164L97.51 5.92676V5.4707H100.614V5.93164H100.489C100.243 5.93164 100.077 5.96005 99.9758 6.00586C99.927 6.02806 99.8995 6.0522 99.884 6.07324C99.8696 6.0929 99.8616 6.1169 99.8616 6.14941C99.8617 6.21656 99.895 6.31992 99.9895 6.46582H99.9905L101.325 8.51562L102.378 6.84668C102.543 6.58177 102.614 6.37159 102.614 6.21094C102.613 6.10225 102.582 6.04112 102.537 6.00391C102.488 5.96316 102.401 5.93166 102.254 5.93164H102.129V5.4707H104.381V5.9248L104.264 5.93164C104.007 5.94744 103.823 6.00424 103.699 6.08984L103.698 6.09082C103.576 6.17484 103.409 6.37077 103.198 6.70117L101.577 9.25586V11.5137C101.577 11.7308 101.591 11.9103 101.617 12.0527C101.643 12.1939 101.68 12.2915 101.722 12.3545L101.756 12.3955C101.846 12.4867 102.001 12.5449 102.254 12.5449H102.379V13.0127Z" fill="black" stroke="black" stroke-width="0.25"/>
<path d="M97.2371 5.4707V6.93945H96.8748L96.8533 6.84082C96.7797 6.49758 96.6796 6.30484 96.575 6.22168L96.571 6.21973C96.5268 6.18223 96.4427 6.14366 96.3005 6.11621C96.161 6.08928 95.9785 6.0752 95.7507 6.0752H93.7742V8.94629H95.6882C95.961 8.94629 96.1041 8.89468 96.1658 8.83301L96.1677 8.83105C96.2404 8.76119 96.3105 8.60822 96.3552 8.33594L96.3718 8.23047H96.821V10.2529H96.3806L96.3572 10.1582C96.3191 10.0077 96.2776 9.89059 96.2351 9.80371C96.1918 9.71525 96.1514 9.66768 96.1199 9.64551C96.0873 9.6227 96.021 9.59681 95.905 9.57812C95.7918 9.5599 95.6437 9.54981 95.4587 9.5498H93.7742V12.0361C93.7742 12.2035 93.8108 12.2891 93.8513 12.3291L93.8972 12.3594C93.9542 12.388 94.0454 12.4082 94.1843 12.4082H95.4587C95.915 12.4082 96.2136 12.3832 96.3689 12.3389C96.5202 12.2956 96.6466 12.2169 96.7507 12.1025C96.8586 11.9798 96.9818 11.7735 97.1169 11.4746L97.1501 11.4014H97.6072L97.5691 11.5566L97.2332 12.918L97.2097 13.0127H91.7341V12.5449H91.8591C92.1719 12.5449 92.338 12.4654 92.4148 12.3516C92.5044 12.2143 92.5613 11.949 92.5613 11.5264V6.96973C92.5613 6.7528 92.5464 6.57374 92.5193 6.43164C92.492 6.28854 92.4538 6.18969 92.4099 6.12695C92.3283 6.01049 92.1616 5.93164 91.8591 5.93164H91.7341V5.4707H97.2371Z" fill="black" stroke="black" stroke-width="0.25"/>
<path d="M86.2021 13.0127H83.7393V12.5449H83.8643C84.2003 12.5449 84.3859 12.4577 84.4756 12.3262C84.5774 12.1725 84.6406 11.8805 84.6406 11.4209V7.15625C84.6406 6.70559 84.5556 6.41356 84.415 6.24902L84.4131 6.24707V6.24609C84.2766 6.07934 84.0393 5.96725 83.6719 5.93164L83.5586 5.9209V5.4707H85.6143L85.6523 5.51758L90.0117 10.918V7.00684C90.0117 6.56254 89.9456 6.28772 89.8428 6.14844L89.8408 6.14551V6.14453C89.7505 6.01613 89.5689 5.93164 89.2471 5.93164H89.1221V5.4707H91.5732V5.93164H91.4482C91.1099 5.93165 90.9128 6.01292 90.8115 6.13574C90.7046 6.26542 90.6348 6.52604 90.6348 6.95703V13.0127H90.2324L90.1953 12.9668L85.2451 6.89844V11.6631C85.2451 12.01 85.3147 12.23 85.4268 12.3535L85.4746 12.3955C85.5953 12.4885 85.7887 12.5449 86.0771 12.5449H86.2021V13.0127Z" fill="black" stroke="black" stroke-width="0.25"/>
<path d="M79.3251 5.29041C80.4381 5.29041 81.384 5.66898 82.1542 6.42615C82.9286 7.18349 83.3172 8.11329 83.3173 9.2074C83.3173 10.3218 82.9269 11.2685 82.1483 12.0385C81.37 12.8081 80.4156 13.1927 79.2938 13.1927C78.1761 13.1927 77.2262 12.8074 76.452 12.0375C75.6778 11.2675 75.2899 10.3215 75.2899 9.2074C75.29 8.09351 75.6757 7.1592 76.4471 6.41345C77.2182 5.66399 78.1805 5.29044 79.3251 5.29041ZM79.3505 5.8197C78.5843 5.8197 77.9672 6.08827 77.4901 6.62537L77.3964 6.73669C76.9089 7.35111 76.6591 8.17479 76.6591 9.22009C76.6591 10.2654 76.9069 11.0982 77.3915 11.7299L77.579 11.9496C78.0326 12.427 78.5984 12.6635 79.2821 12.6635C80.071 12.6633 80.7064 12.3466 81.1971 11.7054L81.3719 11.4554C81.7543 10.8546 81.9481 10.128 81.9481 9.2699C81.9481 8.34384 81.7583 7.58887 81.3866 6.99744L81.2157 6.75427C80.733 6.12916 80.1143 5.8198 79.3505 5.8197Z" fill="black" stroke="black" stroke-width="0.25"/>
<path d="M74.9362 13.0127H72.0631V12.5645L72.1676 12.5469C72.4321 12.5035 72.5914 12.4201 72.6754 12.3174L72.6774 12.3154C72.7657 12.211 72.8209 12.0364 72.8209 11.7686C72.8209 11.7136 72.8191 11.6522 72.8151 11.584V11.583L72.4723 7.38965L70.1774 12.9355L70.1451 13.0127H69.7848L69.7535 12.9355L67.4791 7.38379L67.1149 11.3652C67.1108 11.4336 67.11 11.4982 67.11 11.5576C67.11 11.8491 67.183 12.0666 67.317 12.2236C67.4516 12.3811 67.6607 12.4933 67.9586 12.5479L68.0612 12.5664V13.0127H65.5416V12.5615L65.65 12.5469C65.9337 12.508 66.1158 12.4115 66.2213 12.2764L66.2223 12.2744C66.2752 12.2085 66.3273 12.0995 66.3717 11.9375C66.4158 11.7768 66.4498 11.5717 66.4742 11.3213L66.9098 6.3623C66.6791 6.12898 66.4004 5.9853 66.069 5.93066L65.9645 5.91309V5.4707H68.0201L68.0514 5.54883L70.2672 11.0029L72.5133 5.54785L72.5455 5.4707H74.4762V5.92969L74.3541 5.93164C74.1054 5.93731 73.939 6.0129 73.8317 6.13965C73.7215 6.26983 73.6559 6.47566 73.6559 6.77734C73.6559 6.82751 73.6579 6.8799 73.6617 6.93457L74.028 11.4287L74.066 11.748C74.0808 11.8438 74.0978 11.9291 74.1168 12.0039C74.1552 12.1543 74.1997 12.2539 74.2448 12.3135L74.2838 12.3555C74.385 12.4517 74.5562 12.5217 74.8229 12.5459L74.9362 12.5566V13.0127Z" fill="black" stroke="black" stroke-width="0.25"/>
<path d="M60.4135 5.4707V5.93164H60.2885C60.0246 5.93164 59.86 6.01195 59.7621 6.14746C59.6612 6.29327 59.5991 6.55425 59.5991 6.95703V11.8311C59.5991 12.089 59.6536 12.2258 59.7231 12.2891L59.7993 12.335C59.8318 12.3494 59.8721 12.3629 59.9213 12.374C60.019 12.3961 60.1445 12.4082 60.3002 12.4082H61.7495C62.1901 12.4082 62.4634 12.3314 62.6059 12.209C62.6778 12.1451 62.7553 12.038 62.8354 11.8779C62.9152 11.7183 62.9942 11.5127 63.0717 11.2598L63.0991 11.1719H63.5737L63.5297 11.3301L63.0815 12.9219L63.0561 13.0127H57.5522V12.5449H57.6772C57.9491 12.5449 58.1137 12.4619 58.2075 12.3213L58.2084 12.3193C58.3142 12.1656 58.3793 11.8858 58.3793 11.4521V6.86426C58.3793 6.52301 58.332 6.29938 58.2582 6.16992L58.2231 6.11719C58.142 6.00735 57.9767 5.93164 57.6772 5.93164H57.5522V5.4707H60.4135Z" fill="black" stroke="black" stroke-width="0.25"/>
<path d="M52.646 9.36249H54.3511L53.4937 6.79413L52.646 9.36249ZM57.4722 13.0129H54.6548V12.5451H54.7798C54.9781 12.5451 55.105 12.5104 55.1792 12.4592C55.245 12.4136 55.2826 12.346 55.2827 12.2355C55.2827 12.171 55.2678 12.0915 55.2339 11.9973L55.2329 11.9943L54.5962 10.0598H52.4253L51.9575 11.4357C51.8334 11.8041 51.7779 12.0541 51.7778 12.1974C51.7778 12.3228 51.8158 12.3999 51.8765 12.4494C51.9422 12.503 52.0548 12.5413 52.2339 12.5451L52.356 12.548V13.0129H50.2222V12.5617L50.3296 12.5461C50.5815 12.5112 50.7642 12.4298 50.8892 12.3117C51.014 12.1937 51.1571 11.9286 51.3101 11.4865L53.3247 5.47479L53.353 5.38983H54.2847L54.314 5.47479L56.4272 11.7541C56.488 11.9344 56.5491 12.0788 56.6089 12.1896C56.6688 12.3007 56.724 12.3709 56.772 12.4103L56.8647 12.466C56.9736 12.5155 57.1307 12.5451 57.3472 12.5451H57.4722V13.0129Z" fill="black" stroke="black" stroke-width="0.25"/>
<path d="M49.8995 5.4707V6.93945H49.5372L49.5157 6.84082C49.4421 6.49758 49.342 6.30484 49.2374 6.22168L49.2335 6.21973C49.1892 6.18223 49.1051 6.14366 48.963 6.11621C48.8234 6.08928 48.6409 6.0752 48.4131 6.0752H46.4366V8.94629H48.3506C48.6234 8.94629 48.7665 8.89468 48.8282 8.83301L48.8301 8.83105C48.9028 8.76119 48.9729 8.60822 49.0176 8.33594L49.0342 8.23047H49.4835V10.2529H49.043L49.0196 10.1582C48.9815 10.0077 48.94 9.89059 48.8975 9.80371C48.8542 9.71525 48.8138 9.66768 48.7823 9.64551C48.7497 9.6227 48.6835 9.59681 48.5674 9.57812C48.4542 9.5599 48.3061 9.54981 48.1212 9.5498H46.4366V12.0361C46.4366 12.2035 46.4732 12.2891 46.5137 12.3291L46.5596 12.3594C46.6166 12.388 46.7078 12.4082 46.8467 12.4082H48.1212C48.5774 12.4082 48.876 12.3832 49.0313 12.3389C49.1826 12.2956 49.309 12.2169 49.4131 12.1025C49.521 11.9798 49.6442 11.7735 49.7794 11.4746L49.8126 11.4014H50.2696L50.2315 11.5566L49.8956 12.918L49.8721 13.0127H44.3965V12.5449H44.5215C44.8343 12.5449 45.0004 12.4654 45.0772 12.3516C45.1668 12.2143 45.2237 11.949 45.2237 11.5264V6.96973C45.2237 6.7528 45.2088 6.57374 45.1817 6.43164C45.1544 6.28854 45.1162 6.18969 45.0723 6.12695C44.9907 6.01049 44.824 5.93164 44.5215 5.93164H44.3965V5.4707H49.8995Z" fill="black" stroke="black" stroke-width="0.25"/>
<path d="M39.374 9.08301H40.1445C40.6541 9.08301 41.0378 8.93749 41.3115 8.66016V8.65918C41.5908 8.37986 41.7353 8.00761 41.7353 7.5293C41.7353 7.06841 41.5783 6.70539 41.2675 6.42871L41.2665 6.42773C40.9587 6.14651 40.545 6 40.0136 6H39.374V9.08301ZM44.5341 13.0127H42.8583L42.8203 12.9678C42.5083 12.5883 42.1343 12.0396 41.6982 11.3252C41.2333 10.574 40.8791 10.1137 40.6337 9.92188L40.6328 9.9209C40.3927 9.73037 40.1294 9.6377 39.8398 9.6377H39.374V11.5137C39.374 11.9397 39.4348 12.2055 39.5302 12.3418L39.5683 12.3857C39.6657 12.4844 39.8275 12.5449 40.082 12.5449H40.207V13.0127H37.3339V12.5449H37.4589C37.7658 12.5449 37.9302 12.4644 38.0078 12.3467L38.0087 12.3447C38.1017 12.2084 38.1611 11.9415 38.1611 11.5137V6.94434C38.1611 6.734 38.147 6.56073 38.121 6.42285C38.0948 6.28381 38.0576 6.18777 38.0156 6.12695L38.0146 6.12598C37.9378 6.01215 37.7717 5.93164 37.4589 5.93164H37.3339V5.4707H40.4492C41.2065 5.4707 41.8254 5.65588 42.2929 6.03906C42.765 6.41847 43.0047 6.90976 43.0048 7.50391C43.0048 7.97631 42.872 8.37988 42.5995 8.7041C42.3707 8.97629 42.049 9.18378 41.6435 9.33496C41.8036 9.46267 41.9596 9.61632 42.1103 9.79688C42.3291 10.05 42.6089 10.4665 42.9492 11.0391H42.9501C43.3311 11.6727 43.6204 12.0749 43.8212 12.2607L43.9716 12.3789C44.1211 12.4812 44.2695 12.5353 44.4179 12.5459L44.5341 12.5537V13.0127Z" fill="black" stroke="black" stroke-width="0.25"/>
<path d="M15.9993 31.2957C24.4463 31.2957 31.294 24.4479 31.294 16.0006C31.294 7.55327 24.4463 0.705383 15.9993 0.705383C7.55235 0.705383 0.704712 7.55327 0.704712 16.0006C0.704712 24.4479 7.55235 31.2957 15.9993 31.2957Z" fill="#040404"/>
<path d="M16.8129 18.0648C17.0567 17.5298 17.5714 16.587 18.5252 16.5823C18.4646 15.7695 18.4282 15.6482 18.4282 15.6482C18.4282 15.6482 18.5922 16.2305 18.6102 16.5338C19.0105 16.212 19.8175 15.9879 20.479 16.6129C20.2786 15.8608 20.3577 14.9202 20.479 14.1553C20.6003 13.391 20.479 12.3471 20.3392 12.0253C20.8066 12.826 20.7216 13.8335 20.6003 14.4222C20.479 15.0109 20.4363 15.7753 20.5639 16.1028C21.0371 15.6297 21.9718 15.4413 22.6997 15.933C23.4276 16.4246 23.5004 17.2438 23.5004 17.2438C23.5004 17.2438 23.8915 16.3356 23.2063 14.7042C22.5206 13.0727 21.0053 11.5377 19.7113 11.0449C20.0683 11.6243 20.3675 13.7867 18.3981 14.2021C18.5333 14.6267 18.5143 14.7042 18.5143 14.7042C18.5143 14.7042 18.2635 13.8838 17.4715 13.6325C17.8672 14.038 17.8961 14.8105 17.4137 14.9647C17.066 15.119 16.8955 15.0941 16.8955 15.0941C16.8955 15.0941 17.0758 15.554 16.8147 16.0554C16.9597 15.3697 16.7858 14.8584 16.5154 14.5395C16.245 14.2212 16.2572 14.0196 16.2572 14.0196C16.2572 14.0196 16.0735 13.9329 16.0937 13.703C16.2058 13.9323 16.3797 13.9936 16.4761 13.9889C16.568 14.3361 16.7009 14.4228 16.7009 14.4228L17.0787 14.1114L17.0174 13.8306L16.895 13.8254L16.8747 13.5655L16.7777 13.6163L16.8285 13.361L16.7113 13.4372C16.7113 13.4372 16.7736 13.0704 16.4929 12.7543C16.2121 12.4378 16.0538 12.3205 16.1151 12.0045C15.8805 12.4586 16.092 12.826 16.092 12.826C16.092 12.826 15.962 12.7497 15.9516 12.6625C15.62 12.7081 15.3952 12.882 15.3952 12.882L15.4617 13.0709C15.4617 13.0709 15.2063 13.183 15.1451 13.3921C15.0839 13.6013 14.9816 13.6169 14.9816 13.6169C14.9816 13.6169 15.1347 13.6983 15.252 13.5863C15.2624 13.9075 14.9048 14.0404 14.8794 14.1628C15.0325 14.2443 15.2266 14.1374 15.2266 14.1374C15.2266 14.1374 15.1907 14.4742 14.8794 14.6071C15.0325 14.8365 15.1295 14.714 15.1295 14.714C15.1295 14.714 14.7384 15.0005 14.4628 14.9543C14.1873 14.9087 14.0631 14.3922 14.0631 14.3922C14.0631 14.3922 14.2162 14.1628 14.2006 14.0352C14.185 13.9075 14.3282 13.6625 14.5524 13.6117C14.0879 13.5556 13.598 14.2293 13.598 14.2293C13.598 14.2293 13.4091 14.5251 13.3941 14.7192C13.4351 14.3465 13.4756 14.209 13.4756 14.209C13.4756 14.209 12.3277 14.1709 12.0515 12.8445C11.7754 11.518 12.2803 10.8548 12.2803 10.8548C12.2803 10.8548 7.69912 13.4794 8.34499 17.208C8.67717 15.7313 10.4282 15.171 11.2942 16.0705C11.553 15.643 11.2942 14.4852 11.2381 13.7538C11.1821 13.023 11.1931 12.3707 11.5865 11.8421C11.3167 12.3933 11.3167 13.2142 11.4403 14.0687C11.5639 14.9231 11.7101 15.8001 11.3843 16.5875C12.003 16.149 12.8129 16.1785 13.3525 16.5494C13.3525 16.1334 13.464 15.7325 13.5657 15.6089C13.3635 16.0589 13.4195 16.6436 13.4195 16.6436C13.4195 16.6436 14.6333 16.4951 15.1619 18.1514C15.2404 17.6823 14.836 17.2282 15.2075 16.5425C14.8794 17.2467 15.4322 18.0157 15.3987 18.9377C15.3652 19.8597 14.6454 20.5906 13.9256 20.3884C13.2058 20.1862 13.2398 19.174 13.7794 18.8817C14.319 18.5893 14.2179 18.126 14.2179 18.126C14.2179 18.126 14.2046 18.4391 13.6714 18.7124C13.1382 18.9856 12.7118 19.6986 13.1451 20.4583C13.5784 21.218 14.9643 21.3445 15.6171 20.4583C16.2699 19.572 16.5963 18.0128 16.7032 17.5067C16.7193 17.591 16.7182 17.821 16.7032 18.0382C16.6991 18.1006 16.784 18.1231 16.81 18.0659L16.8129 18.0648Z" fill="url(#paint0_linear_3560_929)"/>
<path d="M12.3315 17.6183C12.3315 17.6183 12.629 17.7668 13.1854 17.5264C13.7417 17.2861 14.0063 17.5623 13.9098 17.895C13.8139 18.2272 13.0929 18.5756 12.9289 19.1082C12.7648 19.6409 12.941 19.965 12.941 19.965C12.941 19.965 12.8006 19.2324 13.5533 18.72C14.3061 18.2076 14.3419 17.9672 14.2298 17.5628C14.1178 17.1584 13.521 17.0666 13.1449 17.2867C12.7688 17.5068 12.7862 17.6385 12.3309 17.6189L12.3315 17.6183Z" fill="url(#paint1_linear_3560_929)"/>
<path d="M15.9983 0C7.16291 0 0 7.16259 0 16C0 24.8374 7.16233 32 15.9983 32C24.8342 32 31.9977 24.8357 31.9977 16C31.9977 7.16433 24.8354 0 15.9983 0ZM29.2363 14.2975H26.6511C26.3356 12.3078 25.4772 10.4995 24.2305 9.02863L26.0456 7.21343C27.747 9.15804 28.8937 11.603 29.2363 14.2969V14.2975ZM17.621 2.75053C20.357 3.08215 22.8365 4.24221 24.8036 5.96902L22.9873 7.78538C21.4945 6.51208 19.6505 5.6403 17.621 5.33468V2.75053ZM14.2779 2.76324V5.35028C12.2259 5.67843 10.368 6.58718 8.87637 7.90034L7.06297 6.08688C9.02658 4.31327 11.5211 3.11681 14.2779 2.76266V2.76324ZM5.83593 7.34631L7.65569 9.16613C6.47025 10.6093 5.65511 12.3684 5.3472 14.2969H2.76199C3.09705 11.663 4.19873 9.26839 5.83593 7.34631ZM2.7539 17.6402H5.33795C5.64702 19.6616 6.51531 21.4993 7.78394 22.9875L5.9688 24.8027C4.24379 22.8402 3.08839 20.367 2.7539 17.6407V17.6402ZM14.2779 29.2368C11.5881 28.8907 9.15194 27.7451 7.21202 26.046L9.02831 24.2296C10.4939 25.4729 12.2964 26.3314 14.2779 26.6503V29.2373V29.2368ZM9.75737 23.5C9.30734 23.125 8.89081 22.7085 8.513 22.2585C7.09532 20.5634 6.24321 18.3802 6.24321 16C6.24321 13.6198 7.04564 11.5677 8.38648 9.89695C8.75505 9.43882 9.16349 9.01419 9.60543 8.63001C11.3177 7.14353 13.5523 6.24286 15.9983 6.24286C18.4443 6.24286 20.5638 7.09673 22.2565 8.51446C22.7083 8.89229 23.1231 9.30883 23.498 9.76061C24.9076 11.4522 25.7551 13.6279 25.7551 16C25.7551 18.3721 24.855 20.679 23.3697 22.3931C22.9856 22.835 22.5609 23.2435 22.1028 23.6121C20.4321 24.9547 18.3096 25.7571 15.9983 25.7571C13.6869 25.7571 11.4489 24.9096 9.75737 23.5ZM17.621 29.2495V26.6653C19.5817 26.369 21.3691 25.5457 22.8354 24.344L24.6516 26.1604C22.7088 27.8185 20.2865 28.9254 17.621 29.2489V29.2495ZM25.9122 24.9356L24.0988 23.1222C25.4281 21.6114 26.3432 19.7228 26.6603 17.6402H29.2444C28.9029 20.4294 27.7002 22.954 25.9128 24.935L25.9122 24.9356Z" fill="url(#paint2_linear_3560_929)"/>
<path d="M16.0058 25.3047C15.8689 25.3047 15.7314 25.3018 15.5939 25.2954C14.8515 25.2631 14.1167 25.1429 13.4096 24.939L13.632 24.1695C14.2785 24.3561 14.9503 24.4658 15.6291 24.4953C15.896 24.5069 16.1606 24.5063 16.4223 24.4936L16.461 25.2937C16.3108 25.3012 16.1577 25.3047 16.0064 25.3047H16.0058ZM16.8099 25.27L16.7412 24.4722C17.6823 24.3907 18.5968 24.155 19.4587 23.7703L19.7851 24.5017C18.8417 24.9228 17.8406 25.1811 16.8099 25.27ZM13.0739 24.835C12.0942 24.5109 11.1802 24.0279 10.3564 23.3994L10.8429 22.7627C11.595 23.3375 12.4304 23.7784 13.3252 24.0747L13.0739 24.835ZM20.1017 24.3526L19.7475 23.6339C20.5939 23.2174 21.3611 22.6662 22.0283 21.9955L22.5962 22.5605C21.8666 23.2936 21.0272 23.8968 20.1017 24.3526ZM10.082 23.181C9.28481 22.523 8.60659 21.743 8.06586 20.8632L8.74812 20.4437C9.24206 21.2485 9.86251 21.9614 10.5916 22.5628L10.082 23.1804V23.181ZM22.8388 22.3075L22.2501 21.7644C22.8926 21.0688 23.4102 20.2779 23.7886 19.4154L24.5222 19.7372C24.108 20.6818 23.5419 21.5466 22.8388 22.308V22.3075ZM7.8885 20.5616C7.38013 19.6598 7.02888 18.6875 6.8446 17.6713L7.63258 17.528C7.80127 18.4558 8.1219 19.3438 8.58637 20.1682L7.8885 20.5616ZM24.6568 19.4119L23.9116 19.1184C24.2565 18.2438 24.4518 17.3194 24.4934 16.3708L24.4945 16.3373L25.2946 16.3702L25.2935 16.4043C25.2478 17.4425 25.0341 18.4541 24.6568 19.4119ZM6.78798 17.3252C6.72617 16.8908 6.6944 16.4471 6.6944 16.0063C6.6944 15.8693 6.69729 15.7318 6.70364 15.5938C6.72328 15.1437 6.77527 14.6931 6.85846 14.254L7.64529 14.4031C7.56904 14.8046 7.52166 15.2165 7.50375 15.6284C7.49798 15.755 7.49567 15.8803 7.49567 16.0057C7.49567 16.4089 7.52455 16.8145 7.58117 17.2114L6.78798 17.3246V17.3252ZM25.3027 16.0184H24.502V15.9936C24.502 15.0542 24.3489 14.1304 24.0462 13.2476L24.8042 12.9882C25.1352 13.9548 25.3027 14.9664 25.3027 15.9936V16.0184ZM7.71115 14.0905L6.93068 13.9114C7.16176 12.9045 7.5569 11.9483 8.10572 11.0714L8.78452 11.496C8.28307 12.2973 7.92201 13.1702 7.71115 14.0905ZM23.937 12.9472C23.5985 12.0679 23.1179 11.2545 22.509 10.53L23.1219 10.0147C23.788 10.8073 24.3137 11.697 24.6846 12.6595L23.937 12.9478V12.9472ZM8.95956 11.2273L8.29694 10.7773C8.87695 9.92343 9.59041 9.17586 10.4177 8.55481L10.8983 9.1955C10.1421 9.7634 9.48989 10.4468 8.95898 11.2273H8.95956ZM22.2981 10.2886C21.6626 9.5872 20.9214 9.00139 20.0953 8.54614L20.4818 7.84479C21.3853 8.34221 22.1964 8.98348 22.8914 9.75069L22.2981 10.2886ZM11.1583 9.00832L10.7019 8.3503C11.5529 7.75986 12.4882 7.31906 13.4812 7.0406L13.6979 7.81186C12.7903 8.06663 11.9365 8.46931 11.1583 9.0089V9.00832ZM19.8111 8.39709C18.9682 7.97362 18.0659 7.69574 17.1277 7.57153L17.2334 6.77774C18.26 6.91408 19.2484 7.21796 20.171 7.68129L19.8117 8.39709H19.8111ZM14.0075 7.73098L13.8203 6.95221C14.6603 6.75058 15.5263 6.66681 16.4038 6.70494C16.565 6.71188 16.7267 6.72343 16.885 6.73845L16.8088 7.53571C16.6638 7.52184 16.5159 7.51144 16.3686 7.50509C15.5673 7.47043 14.7747 7.54668 14.0069 7.73098H14.0075Z" fill="white"/>
<path d="M15.9992 3.81578C16.4475 3.81578 16.8109 3.45237 16.8109 3.00408C16.8109 2.55579 16.4475 2.19238 15.9992 2.19238C15.551 2.19238 15.1876 2.55579 15.1876 3.00408C15.1876 3.45237 15.551 3.81578 15.9992 3.81578Z" fill="#040404"/>
<path d="M16.758 5.06901C17.2063 5.06901 17.5697 4.7056 17.5697 4.25732C17.5697 3.80903 17.2063 3.44562 16.758 3.44562C16.3097 3.44562 15.9464 3.80903 15.9464 4.25732C15.9464 4.7056 16.3097 5.06901 16.758 5.06901Z" fill="#040404"/>
<path d="M15.2197 5.06901C15.668 5.06901 16.0314 4.7056 16.0314 4.25732C16.0314 3.80903 15.668 3.44562 15.2197 3.44562C14.7714 3.44562 14.408 3.80903 14.408 4.25732C14.408 4.7056 14.7714 5.06901 15.2197 5.06901Z" fill="#040404"/>
<path d="M15.8533 4.38025C15.8533 4.38025 15.9423 5.08739 15.4512 5.51374H16.5234C16.5234 5.51374 16.0844 5.13245 16.1942 4.40914C16.2265 3.75054 16.1878 3.24677 16.1878 3.24677L15.7291 3.35018L15.8533 4.38025Z" fill="#040404"/>
<path d="M17.4946 28.1823C17.2866 27.5208 16.4403 26.9119 15.9995 26.3948C15.5593 26.9125 14.7124 27.5208 14.5044 28.1823C14.3929 28.5376 14.5616 29.0622 14.8603 29.2499C15.5154 29.6613 15.9995 29.3037 15.9995 29.3037C15.9995 29.3037 16.483 29.6613 17.1387 29.2499C17.438 29.0622 17.6061 28.5376 17.4946 28.1823Z" fill="#040404"/>
<path d="M27.9995 17.364C28.5691 17.1849 29.0936 16.4553 29.5396 16.0763C29.0936 15.6967 28.5697 14.967 27.9995 14.7885C27.6933 14.6926 27.2415 14.8376 27.0798 15.0953C26.7256 15.6597 27.0336 16.0768 27.0336 16.0768C27.0336 16.0768 26.7251 16.4934 27.0798 17.0584C27.2415 17.3161 27.6933 17.4611 27.9995 17.3652V17.364Z" fill="#040404"/>
<path d="M27.1323 16.0005C27.1323 16.0005 26.6042 16.0421 26.2865 15.6758V16.4759C26.2865 16.4759 26.703 16.0207 27.2426 16.1027C27.7342 16.127 27.9786 16.2252 27.9786 16.2252L27.9012 15.8832L27.1323 16.0005Z" fill="#040404"/>
<path d="M4.15714 14.5645C4.15714 14.5645 4.28019 15.4224 5.41479 16.0007C4.89486 16.3421 4.44945 16.7124 4.15714 17.4583C3.78856 16.7303 3.47661 16.3635 2.85211 16.059C3.62739 15.5957 3.98672 15.1514 4.15714 14.565V14.5645Z" fill="#040404"/>
<path d="M15.9982 0.263367C7.30843 0.263367 0.263367 7.30868 0.263367 16.0005C0.263367 24.6923 7.30843 31.7376 15.9982 31.7376C24.688 31.7376 31.7348 24.6923 31.7348 16.0005C31.7348 7.30868 24.6897 0.263367 15.9982 0.263367ZM15.9982 30.5308C7.97394 30.5308 1.46845 24.0251 1.46845 16.0005C1.46845 7.97595 7.97394 1.47023 15.9982 1.47023C24.0225 1.47023 30.5297 7.97595 30.5297 16.0005C30.5297 24.0251 24.0242 30.5308 15.9982 30.5308Z" fill="#FD0100"/>
<defs>
<linearGradient id="paint0_linear_3560_929" x1="15.9493" y1="7.7923" x2="15.9493" y2="23.5242" gradientUnits="userSpaceOnUse">
<stop stop-color="#9A420F"/>
<stop offset="0.16" stop-color="#A03C22"/>
<stop offset="0.2" stop-color="#A24024"/>
<stop offset="0.24" stop-color="#A94D2A"/>
<stop offset="0.29" stop-color="#B66335"/>
<stop offset="0.34" stop-color="#C78244"/>
<stop offset="0.39" stop-color="#DDAA57"/>
<stop offset="0.44" stop-color="#F8DA6E"/>
<stop offset="0.45" stop-color="#FEE473"/>
<stop offset="0.52" stop-color="#FEF1BA"/>
<stop offset="0.58" stop-color="white"/>
<stop offset="0.62" stop-color="#FEF2B3"/>
<stop offset="0.65" stop-color="#FDE978"/>
<stop offset="0.67" stop-color="#FDE662"/>
<stop offset="0.7" stop-color="#DCB854"/>
<stop offset="0.74" stop-color="#B98846"/>
<stop offset="0.78" stop-color="#9E613B"/>
<stop offset="0.82" stop-color="#8B4633"/>
<stop offset="0.85" stop-color="#7F352E"/>
<stop offset="0.87" stop-color="#7B302D"/>
<stop offset="1" stop-color="#9F420E"/>
</linearGradient>
<linearGradient id="paint1_linear_3560_929" x1="13.3044" y1="-6.26589" x2="13.3044" y2="23.5243" gradientUnits="userSpaceOnUse">
<stop stop-color="#9A420F"/>
<stop offset="0.16" stop-color="#A03C22"/>
<stop offset="0.2" stop-color="#A24024"/>
<stop offset="0.24" stop-color="#A94D2A"/>
<stop offset="0.29" stop-color="#B66335"/>
<stop offset="0.34" stop-color="#C78244"/>
<stop offset="0.39" stop-color="#DDAA57"/>
<stop offset="0.44" stop-color="#F8DA6E"/>
<stop offset="0.45" stop-color="#FEE473"/>
<stop offset="0.52" stop-color="#FEF1BA"/>
<stop offset="0.58" stop-color="white"/>
<stop offset="0.62" stop-color="#FEF2B3"/>
<stop offset="0.65" stop-color="#FDE978"/>
<stop offset="0.67" stop-color="#FDE662"/>
<stop offset="0.7" stop-color="#DCB854"/>
<stop offset="0.74" stop-color="#B98846"/>
<stop offset="0.78" stop-color="#9E613B"/>
<stop offset="0.82" stop-color="#8B4633"/>
<stop offset="0.85" stop-color="#7F352E"/>
<stop offset="0.87" stop-color="#7B302D"/>
<stop offset="1" stop-color="#9F420E"/>
</linearGradient>
<linearGradient id="paint2_linear_3560_929" x1="14.8879" y1="-8.59939" x2="16.9482" y2="36.9996" gradientUnits="userSpaceOnUse">
<stop stop-color="#9A420F"/>
<stop offset="0.16" stop-color="#A03C22"/>
<stop offset="0.2" stop-color="#A24024"/>
<stop offset="0.24" stop-color="#A94D2A"/>
<stop offset="0.29" stop-color="#B66335"/>
<stop offset="0.34" stop-color="#C78244"/>
<stop offset="0.39" stop-color="#DDAA57"/>
<stop offset="0.44" stop-color="#F8DA6E"/>
<stop offset="0.45" stop-color="#FEE473"/>
<stop offset="0.52" stop-color="#FEF1BA"/>
<stop offset="0.58" stop-color="white"/>
<stop offset="0.62" stop-color="#FEF2B3"/>
<stop offset="0.65" stop-color="#FDE978"/>
<stop offset="0.67" stop-color="#FDE662"/>
<stop offset="0.7" stop-color="#DCB854"/>
<stop offset="0.74" stop-color="#B98846"/>
<stop offset="0.78" stop-color="#9E613B"/>
<stop offset="0.82" stop-color="#8B4633"/>
<stop offset="0.85" stop-color="#7F352E"/>
<stop offset="0.87" stop-color="#7B302D"/>
<stop offset="1" stop-color="#9F420E"/>
</linearGradient>
</defs>
</svg>
