<svg width="251" height="103" viewBox="0 0 251 103" fill="none" xmlns="http://www.w3.org/2000/svg">
<path d="M195.071 66.9929H190.326V66.3005H190.451C191.15 66.3005 191.581 66.1192 191.799 65.7996C192.029 65.4536 192.157 64.8261 192.157 63.8875V55.2253C192.157 54.3003 191.984 53.6683 191.669 53.2986L191.668 53.2966C191.36 52.9201 190.838 52.6832 190.073 52.6091L189.96 52.5984V51.9304H193.945L193.983 51.9773L203.067 63.2292V54.9216C203.067 54.0159 202.935 53.4211 202.7 53.1023L202.698 53.0994C202.48 52.7866 202.06 52.6101 201.386 52.6101H201.261V51.9304H205.982V52.6101H205.857C205.155 52.6101 204.705 52.7753 204.463 53.0691C204.215 53.3697 204.075 53.9411 204.075 54.821V66.9929H203.449L203.411 66.947L193.127 54.3376V64.3796C193.127 65.1006 193.273 65.5883 193.536 65.8738H193.535C193.804 66.1485 194.263 66.3005 194.946 66.3005H195.071V66.9929Z" fill="white" stroke="white" stroke-width="0.25"/>
<path d="M181.231 51.5642C183.46 51.5642 185.349 52.3209 186.888 53.8347H186.887C188.435 55.3486 189.211 57.204 189.211 59.3923C189.211 61.6221 188.432 63.5103 186.876 65.0496C185.319 66.5887 183.414 67.3591 181.169 67.3591C178.931 67.3591 177.034 66.5889 175.486 65.0496C173.938 63.5103 173.164 61.6218 173.164 59.3923C173.164 57.163 173.934 55.2987 175.474 53.8093C177.015 52.3118 178.937 51.5643 181.231 51.5642ZM181.282 52.3826C179.69 52.3826 178.402 52.9419 177.408 54.0613L177.213 54.2927C176.199 55.5696 175.687 57.2741 175.687 59.4177C175.687 61.5614 176.196 63.2833 177.202 64.5945H177.201C178.204 65.8942 179.515 66.5408 181.143 66.5408C182.787 66.5408 184.115 65.8773 185.135 64.5437L185.323 64.2888C186.231 62.9951 186.688 61.4073 186.688 59.5183C186.688 57.4842 186.24 55.8405 185.356 54.5769L185.173 54.3289C184.169 53.0284 182.875 52.3826 181.282 52.3826Z" fill="white" stroke="white" stroke-width="0.25"/>
<path d="M164.978 51.5642C165.801 51.5642 166.694 51.7098 167.654 51.9988H167.653C168.256 52.1747 168.705 52.2585 169.007 52.2585C169.201 52.2585 169.353 52.2208 169.468 52.1531C169.581 52.0862 169.666 51.985 169.724 51.8435L169.757 51.7664H170.432V56.3855H169.782L169.766 56.2781C169.602 55.0969 169.068 54.1581 168.16 53.4548L168.159 53.4539C167.256 52.74 166.198 52.3826 164.978 52.3826C163.452 52.3826 162.203 52.9912 161.224 54.2166V54.2175C160.245 55.4364 159.75 57.0187 159.75 58.9753C159.75 61.1242 160.32 62.8965 161.452 64.3015H161.451C162.59 65.7052 164.012 66.4021 165.724 66.4021C166.544 66.4021 167.137 66.2705 167.522 66.0261C167.898 65.7879 168.086 65.4349 168.086 64.948V63.3445C168.086 62.4384 167.963 61.8362 167.741 61.5076L167.74 61.5056C167.536 61.1925 167.164 61.0203 166.582 61.0203H165.89V60.3279H172.138V61.0203H172.013C171.371 61.0203 170.94 61.1677 170.688 61.4343L170.689 61.4353C170.445 61.6941 170.307 62.1666 170.307 62.8904V66.9636L170.214 66.988C169.856 67.084 169.196 67.1682 168.246 67.2439L168.247 67.2449C167.303 67.3207 166.566 67.3591 166.039 67.3591C163.283 67.3591 161.116 66.6803 159.555 65.3074C158.002 63.9345 157.226 62.1226 157.226 59.8845C157.226 58.3254 157.563 56.9154 158.239 55.658L158.371 55.4255C159.043 54.2777 159.949 53.3583 161.088 52.6687V52.6677C162.31 51.9326 163.608 51.5642 164.978 51.5642Z" fill="white" stroke="white" stroke-width="0.25"/>
<path d="M147.825 59.8356H151.646L149.724 54.0807L147.825 59.8356ZM157.677 66.9929H152.213V66.3005H152.338C152.752 66.3004 153.04 66.2283 153.222 66.1022C153.396 65.9818 153.488 65.802 153.488 65.5417C153.488 65.3918 153.454 65.2171 153.382 65.0163L153.381 65.0124L152.057 60.9948H147.464L146.483 63.8776C146.231 64.6264 146.11 65.1523 146.11 65.4665C146.11 65.7498 146.198 65.9461 146.358 66.0768C146.523 66.2117 146.785 66.2923 147.163 66.3005L147.285 66.3034V66.9929H143.209V66.3171L143.316 66.3024C143.846 66.2291 144.244 66.0551 144.523 65.7917C144.802 65.5283 145.102 64.9614 145.413 64.0612L149.504 51.8513L149.532 51.7663H151.24L151.268 51.8513L155.562 64.6052C155.687 64.9757 155.813 65.2776 155.939 65.5114C156.065 65.7455 156.188 65.9049 156.304 65.9997L156.403 66.0681C156.653 66.2181 157.031 66.3005 157.552 66.3005H157.677V66.9929Z" fill="white" stroke="white" stroke-width="0.25"/>
<path d="M133.065 59.2673H134.758C135.82 59.2673 136.635 58.9636 137.22 58.3699L137.221 58.3689C137.817 57.7733 138.119 56.9818 138.119 55.9822C138.119 55.0129 137.787 54.2397 137.126 53.6511L137.124 53.6501C136.47 53.0529 135.598 52.7489 134.494 52.7488H133.065V59.2673ZM143.547 66.9929H140.332L140.294 66.947C139.665 66.1828 138.908 65.0745 138.023 63.6248V63.6238C137.08 62.0994 136.349 61.1463 135.831 60.741L135.83 60.74C135.32 60.3359 134.758 60.1355 134.139 60.1355H133.065V64.0769C133.065 64.9492 133.189 65.5246 133.409 65.8357C133.628 66.1343 134.022 66.3005 134.632 66.3005H134.757V66.9929H129.178V66.3005H129.303C129.943 66.3005 130.332 66.1325 130.525 65.8396L130.526 65.8376C130.739 65.5261 130.858 64.9496 130.858 64.0769V54.7957C130.858 54.3627 130.83 54.0015 130.775 53.7107C130.72 53.4187 130.638 53.2054 130.539 53.0613V53.0593C130.346 52.7746 129.954 52.6101 129.303 52.6101H129.178V51.9304H135.378C136.895 51.9305 138.121 52.3015 139.042 53.0564C139.971 53.8034 140.44 54.7654 140.44 55.9324C140.44 56.8663 140.177 57.654 139.646 58.2859C139.159 58.8654 138.452 59.3019 137.538 59.6082C137.922 59.886 138.295 60.242 138.656 60.6755H138.655C139.092 61.1811 139.656 62.0176 140.346 63.1794L140.629 63.6414C141.267 64.6682 141.771 65.3473 142.141 65.6892L142.299 65.824C142.671 66.1183 143.048 66.2742 143.43 66.3015L143.547 66.3093V66.9929Z" fill="white" stroke="white" stroke-width="0.25"/>
<path d="M119.856 51.9304C122.415 51.9304 124.473 52.6578 126.017 54.1238C127.567 55.5885 128.342 57.4532 128.342 59.7078C128.342 61.9186 127.61 63.6931 126.141 65.0164C124.672 66.3393 122.634 66.9929 120.046 66.9929H112.875V66.3005H113C113.621 66.3005 114.013 66.1333 114.224 65.8357C114.444 65.5153 114.567 64.9389 114.567 64.0769V54.8464C114.567 53.9655 114.444 53.3859 114.224 53.075C114.013 52.7774 113.621 52.6101 113 52.6101H112.875V51.9304H119.856ZM116.774 63.5593C116.774 64.0811 116.806 64.5166 116.867 64.8669C116.929 65.2185 117.02 65.4765 117.133 65.6501C117.35 65.9839 117.801 66.1746 118.544 66.1746H120.071C121.86 66.1746 123.255 65.5999 124.271 64.4607C125.29 63.311 125.806 61.7402 125.806 59.7332C125.806 57.6007 125.24 55.9109 124.12 54.6511H124.119C123.011 53.3867 121.465 52.7489 119.466 52.7488H116.774V63.5593Z" fill="white" stroke="white" stroke-width="0.25"/>
<path d="M245.829 42.3037H240.174V41.6113H240.299C241.019 41.6113 241.447 41.4363 241.647 41.1367L241.648 41.1348C241.869 40.8144 241.992 40.2417 241.992 39.3877V34.7637L238.855 29.8838C238.333 29.0674 237.917 28.5495 237.608 28.3115C237.307 28.0799 236.88 27.9455 236.315 27.9209L236.196 27.915V27.2412H242.242V27.9209H242.117C241.613 27.9209 241.253 27.9785 241.023 28.083C240.91 28.1345 240.834 28.1948 240.786 28.2598C240.739 28.3235 240.715 28.3989 240.715 28.4902C240.715 28.6643 240.799 28.9004 240.997 29.2051L243.82 33.5371L246.065 29.9766C246.405 29.4296 246.563 28.9777 246.563 28.6162C246.563 28.3686 246.49 28.2034 246.362 28.0967C246.23 27.9864 246.018 27.921 245.704 27.9209H245.579V27.2412H249.894V27.9131L249.777 27.9199C249.31 27.9487 248.945 28.0433 248.676 28.1953L248.565 28.2646C248.293 28.4511 247.942 28.8695 247.513 29.542L244.199 34.7656V39.3877C244.199 39.8335 244.228 40.2054 244.283 40.5049C244.338 40.8036 244.418 41.0225 244.517 41.1709L244.601 41.2705C244.817 41.4891 245.174 41.6113 245.704 41.6113H245.829V42.3037Z" fill="white" stroke="white" stroke-width="0.25"/>
<path d="M235.385 27.2412V29.9658H234.881L234.859 29.8672C234.709 29.1649 234.497 28.7356 234.247 28.5371L234.244 28.5352C234.129 28.4378 233.932 28.3543 233.635 28.2969C233.34 28.2401 232.961 28.211 232.494 28.2109H228.351V34.2998H232.367C232.926 34.2998 233.264 34.1975 233.429 34.0332L233.43 34.0322C233.609 33.8599 233.756 33.5118 233.848 32.9531L233.865 32.8477H234.538V36.6973H233.874L233.85 36.6025C233.771 36.2917 233.685 36.0438 233.594 35.8564C233.501 35.6676 233.408 35.5501 233.318 35.4873C233.228 35.4238 233.07 35.3672 232.827 35.3281C232.588 35.2896 232.28 35.2695 231.9 35.2695H228.351V40.4482C228.351 40.8065 228.429 41.0245 228.552 41.1406C228.686 41.2595 228.928 41.334 229.312 41.334H231.9C232.827 41.334 233.45 41.2821 233.785 41.1865C234.116 41.092 234.394 40.92 234.622 40.6689C234.854 40.4051 235.11 39.9723 235.386 39.3613L235.419 39.2881H236.101L236.062 39.4434L235.381 42.208L235.357 42.3037H224.464V41.6113H224.589C225.239 41.6113 225.632 41.4459 225.824 41.1611C226.029 40.8487 226.144 40.2758 226.144 39.4131V30.1572C226.144 29.7118 226.115 29.3401 226.058 29.041C226 28.7407 225.916 28.5203 225.812 28.3721C225.611 28.0847 225.22 27.9209 224.589 27.9209H224.464V27.2412H235.385Z" fill="white" stroke="white" stroke-width="0.25"/>
<path d="M212.969 42.3037H208.224V41.6113H208.349C209.048 41.6113 209.479 41.43 209.697 41.1104C209.927 40.7644 210.055 40.1369 210.055 39.1982V30.5361C210.055 29.6111 209.882 28.9791 209.566 28.6094L209.565 28.6074C209.258 28.2309 208.736 27.994 207.971 27.9199L207.857 27.9092V27.2412H211.843L211.881 27.2881L220.965 38.54V30.2324C220.965 29.3267 220.833 28.7319 220.598 28.4131L220.596 28.4102C220.377 28.0974 219.957 27.9209 219.284 27.9209H219.159V27.2412H223.88V27.9209H223.755C223.053 27.9209 222.603 28.0861 222.36 28.3799C222.112 28.6805 221.973 29.2519 221.973 30.1318V42.3037H221.347L221.309 42.2578L211.024 29.6484V39.6904C211.024 40.4114 211.171 40.8991 211.434 41.1846H211.433C211.701 41.4593 212.161 41.6113 212.844 41.6113H212.969V42.3037Z" fill="white" stroke="white" stroke-width="0.25"/>
<path d="M199.129 26.875C201.358 26.875 203.247 27.6316 204.786 29.1455H204.785C206.333 30.6594 207.109 32.5148 207.109 34.7031C207.108 36.9328 206.33 38.8211 204.774 40.3604C203.217 41.8995 201.312 42.6699 199.067 42.6699C196.829 42.6699 194.932 41.8996 193.384 40.3604C191.836 38.8211 191.062 36.9326 191.062 34.7031C191.062 32.4738 191.832 30.6095 193.372 29.1201C194.913 27.6226 196.835 26.8751 199.129 26.875ZM199.18 27.6934C197.588 27.6934 196.3 28.2527 195.306 29.3721L195.11 29.6035C194.097 30.8804 193.585 32.5848 193.585 34.7285C193.585 36.8722 194.094 38.5941 195.1 39.9053H195.099C196.102 41.205 197.413 41.8516 199.041 41.8516C200.685 41.8515 202.013 41.1881 203.033 39.8545L203.221 39.5996C204.129 38.3059 204.586 36.7181 204.586 34.8291C204.586 32.795 204.138 31.1513 203.254 29.8877L203.071 29.6396C202.067 28.3392 200.773 27.6934 199.18 27.6934Z" fill="white" stroke="white" stroke-width="0.25"/>
<path d="M190.086 42.3037H184.506V41.6309L184.612 41.6133C185.163 41.5228 185.523 41.3453 185.722 41.1016L185.723 41.0996C185.931 40.8542 186.047 40.464 186.047 39.9053C186.047 39.7912 186.043 39.6643 186.035 39.5244L185.295 30.4678L180.428 42.2266L180.397 42.3037H179.838L179.806 42.2256L174.986 30.4619L174.2 39.083C174.192 39.2227 174.187 39.3541 174.187 39.4766C174.187 40.0906 174.343 40.5649 174.64 40.9131C174.938 41.2618 175.392 41.4989 176.017 41.6133L176.12 41.6328V42.3037H171.26V41.6279L171.369 41.6123C171.964 41.5306 172.371 41.326 172.613 41.0156L172.614 41.0137C172.737 40.8602 172.848 40.6204 172.941 40.2832C173.033 39.9473 173.105 39.5231 173.155 39.0098L174.046 28.877C173.55 28.3573 172.944 28.0377 172.223 27.9189L172.119 27.9014V27.2412H176.079L176.11 27.3193L180.73 38.6904L185.413 27.3184L185.445 27.2412H189.151V27.918L189.029 27.9209C188.498 27.933 188.12 28.0943 187.872 28.3877C187.621 28.6846 187.484 29.137 187.484 29.7656C187.484 29.8716 187.489 29.9819 187.497 30.0967L188.242 39.2256L188.277 39.5693C188.316 39.8978 188.365 40.1792 188.424 40.4141C188.504 40.7278 188.601 40.9501 188.708 41.0908C188.929 41.3714 189.338 41.5547 189.972 41.6123L190.086 41.6221V42.3037Z" fill="white" stroke="white" stroke-width="0.25"/>
<path d="M160.585 27.2412V27.9209H160.46C159.897 27.9209 159.517 28.0927 159.287 28.4121C159.058 28.7417 158.931 29.3061 158.931 30.1318V40.0322C158.931 40.5681 159.044 40.8949 159.228 41.0605C159.325 41.1435 159.474 41.2128 159.686 41.2607C159.897 41.3085 160.163 41.334 160.486 41.334H163.428C164.33 41.3339 164.925 41.1774 165.251 40.8975C165.416 40.7525 165.584 40.5185 165.75 40.1846C165.917 39.8519 166.079 39.4271 166.238 38.9092L166.265 38.8213H166.964L166.919 38.9795L166.01 42.2119L165.985 42.3037H155.032V41.6113H155.157C155.736 41.6113 156.118 41.4316 156.34 41.0986L156.342 41.0977C156.581 40.7517 156.711 40.1486 156.711 39.2617V29.9424C156.711 29.1467 156.588 28.6286 156.372 28.3525L156.37 28.3496C156.169 28.0773 155.781 27.9209 155.157 27.9209H155.032V27.2412H160.585Z" fill="white" stroke="white" stroke-width="0.25"/>
<path d="M144.759 35.1464H148.58L146.658 29.3915L144.759 35.1464ZM154.611 42.3036H149.147V41.6112H149.272C149.686 41.6112 149.974 41.539 150.156 41.413C150.33 41.2925 150.422 41.1127 150.422 40.8524C150.422 40.7025 150.388 40.5279 150.316 40.327L150.315 40.3231L148.991 36.3055H144.398L143.417 39.1884C143.165 39.9372 143.044 40.463 143.044 40.7772C143.044 41.0605 143.132 41.2569 143.292 41.3876C143.457 41.5224 143.719 41.6031 144.097 41.6112L144.219 41.6141V42.3036H140.143V41.6278L140.25 41.6132C140.78 41.5398 141.178 41.3658 141.457 41.1024C141.736 40.8391 142.036 40.2722 142.347 39.3719L146.438 27.162L146.466 27.077H148.174L148.202 27.162L152.496 39.9159C152.621 40.2865 152.747 40.5884 152.873 40.8221C152.999 41.0563 153.122 41.2156 153.238 41.3104L153.337 41.3788C153.587 41.5288 153.965 41.6112 154.486 41.6112H154.611V42.3036Z" fill="white" stroke="white" stroke-width="0.25"/>
<path d="M139.23 27.2412V29.9658H138.726L138.705 29.8672C138.554 29.1649 138.343 28.7356 138.093 28.5371L138.09 28.5352C137.975 28.4378 137.777 28.3543 137.48 28.2969C137.186 28.2401 136.807 28.211 136.34 28.2109H132.196V34.2998H136.213C136.772 34.2998 137.11 34.1975 137.274 34.0332L137.275 34.0322C137.455 33.8599 137.601 33.5118 137.693 32.9531L137.711 32.8477H138.384V36.6973H137.72L137.695 36.6025C137.616 36.2917 137.531 36.0438 137.439 35.8564C137.347 35.6676 137.253 35.5501 137.164 35.4873C137.074 35.4238 136.915 35.3672 136.673 35.3281C136.433 35.2896 136.125 35.2695 135.746 35.2695H132.196V40.4482C132.196 40.8065 132.275 41.0245 132.397 41.1406C132.531 41.2595 132.774 41.334 133.157 41.334H135.746C136.673 41.334 137.296 41.2821 137.631 41.1865C137.961 41.092 138.24 40.92 138.468 40.6689C138.699 40.4051 138.955 39.9723 139.231 39.3613L139.265 39.2881H139.946L139.908 39.4434L139.226 42.208L139.203 42.3037H128.309V41.6113H128.434C129.085 41.6113 129.478 41.4459 129.67 41.1611C129.875 40.8487 129.989 40.2758 129.989 39.4131V30.1572C129.989 29.7118 129.96 29.3401 129.903 29.041C129.846 28.7407 129.762 28.5203 129.658 28.3721C129.457 28.0847 129.066 27.9209 128.434 27.9209H128.309V27.2412H139.23Z" fill="white" stroke="white" stroke-width="0.25"/>
<path d="M117.85 34.5781H119.543C120.605 34.5781 121.42 34.2744 122.005 33.6807L122.006 33.6797C122.602 33.0841 122.904 32.2926 122.904 31.293C122.904 30.3237 122.572 29.5505 121.911 28.9619L121.909 28.9609C121.255 28.3637 120.383 28.0597 119.279 28.0596H117.85V34.5781ZM128.332 42.3037H125.117L125.079 42.2578C124.45 41.4936 123.693 40.3853 122.808 38.9355V38.9346C121.865 37.4102 121.134 36.4571 120.616 36.0518L120.615 36.0508C120.105 35.6467 119.543 35.4463 118.924 35.4463H117.85V39.3877C117.85 40.26 117.974 40.8354 118.194 41.1465C118.413 41.4451 118.807 41.6113 119.417 41.6113H119.542V42.3037H113.963V41.6113H114.088C114.729 41.6113 115.117 41.4433 115.31 41.1504L115.311 41.1484C115.524 40.8369 115.643 40.2604 115.643 39.3877V30.1064C115.643 29.6735 115.615 29.3123 115.56 29.0215C115.505 28.7295 115.424 28.5162 115.324 28.3721V28.3701C115.131 28.0854 114.739 27.9209 114.088 27.9209H113.963V27.2412H120.163C121.68 27.2413 122.906 27.6123 123.827 28.3672C124.756 29.1142 125.225 30.0762 125.225 31.2432C125.225 32.1771 124.962 32.9648 124.431 33.5967C123.944 34.1761 123.237 34.6127 122.323 34.9189C122.707 35.1968 123.08 35.5528 123.441 35.9863H123.44C123.877 36.4919 124.441 37.3284 125.131 38.4902L125.414 38.9521C126.052 39.979 126.556 40.6581 126.926 41L127.084 41.1348C127.456 41.4291 127.833 41.585 128.215 41.6123L128.332 41.6201V42.3037Z" fill="white" stroke="white" stroke-width="0.25"/>
<path d="M51.1 99.951C78.0786 99.951 99.9491 78.0805 99.9491 51.1019C99.9491 24.1233 78.0786 2.25287 51.1 2.25287C24.1214 2.25287 2.25098 24.1233 2.25098 51.1019C2.25098 78.0805 24.1214 99.951 51.1 99.951Z" fill="#040404"/>
<path d="M53.6979 57.6945C54.4765 55.9859 56.1205 52.9747 59.1668 52.9599C58.973 50.3639 58.8568 49.9764 58.8568 49.9764C58.8568 49.9764 59.3808 51.8363 59.438 52.8049C60.7167 51.7772 63.2943 51.0613 65.4069 53.0577C64.7667 50.6554 65.0194 47.6516 65.4069 45.2087C65.7944 42.7676 65.4069 39.4335 64.9604 38.4058C66.4531 40.9631 66.1818 44.1809 65.7944 46.0611C65.4069 47.9413 65.2704 50.3823 65.6781 51.4285C67.1893 49.9174 70.1746 49.3159 72.4995 50.886C74.8243 52.4562 75.0568 55.0726 75.0568 55.0726C75.0568 55.0726 76.3059 52.1721 74.1176 46.9615C71.9275 41.7509 67.0878 36.8485 62.9548 35.2746C64.095 37.1253 65.0508 44.0315 58.7608 45.3581C59.1926 46.7143 59.1317 46.9615 59.1317 46.9615C59.1317 46.9615 58.3309 44.3415 55.8013 43.5388C57.0652 44.8341 57.1575 47.301 55.6168 47.7936C54.5061 48.2863 53.9618 48.207 53.9618 48.207C53.9618 48.207 54.5374 49.6757 53.7034 51.2772C54.1666 49.0871 53.6112 47.4542 52.7477 46.4357C51.8842 45.419 51.9229 44.7751 51.9229 44.7751C51.9229 44.7751 51.3362 44.4983 51.4007 43.7639C51.7587 44.4965 52.3141 44.692 52.6222 44.6773C52.9156 45.7862 53.3399 46.0629 53.3399 46.0629L54.5466 45.0684L54.3511 44.1717L53.9599 44.1551L53.8953 43.3248L53.5853 43.4872L53.7477 42.6717L53.3732 42.9152C53.3732 42.9152 53.5724 41.7436 52.6757 40.7343C51.779 39.7232 51.2734 39.3486 51.469 38.3394C50.7199 39.7896 51.3952 40.9631 51.3952 40.9631C51.3952 40.9631 50.9801 40.7195 50.9469 40.4409C49.8878 40.5867 49.17 41.1421 49.17 41.1421L49.3822 41.7454C49.3822 41.7454 48.5667 42.1034 48.3711 42.7713C48.1755 43.4392 47.8489 43.489 47.8489 43.489C47.8489 43.489 48.3379 43.7492 48.7124 43.3912C48.7456 44.4171 47.6035 44.8415 47.5223 45.2326C48.0113 45.4928 48.6313 45.1515 48.6313 45.1515C48.6313 45.1515 48.5169 46.2272 47.5223 46.6515C48.0113 47.384 48.3213 46.9929 48.3213 46.9929C48.3213 46.9929 47.0721 47.908 46.192 47.7604C45.3119 47.6147 44.9152 45.9652 44.9152 45.9652C44.9152 45.9652 45.4042 45.2326 45.3544 44.8249C45.3045 44.4171 45.7621 43.6348 46.478 43.4724C44.9946 43.2934 43.4299 45.4448 43.4299 45.4448C43.4299 45.4448 42.8266 46.3895 42.7786 47.0095C42.9096 45.8194 43.0388 45.3803 43.0388 45.3803C43.0388 45.3803 39.3725 45.2585 38.4906 41.0221C37.6086 36.7858 39.2212 34.6676 39.2212 34.6676C39.2212 34.6676 24.5896 43.0499 26.6524 54.9582C27.7133 50.2421 33.3058 48.4524 36.0717 51.3252C36.8983 49.9598 36.0717 46.2622 35.8927 43.9263C35.7137 41.5923 35.7488 39.5091 37.0053 37.8209C36.1436 39.5811 36.1436 42.203 36.5385 44.9319C36.9333 47.6608 37.4001 50.4617 36.3595 52.9765C38.3356 51.5761 40.9224 51.6702 42.6457 52.8548C42.6457 51.5263 43.0019 50.2458 43.3266 49.8509C42.6808 51.2883 42.8598 53.1555 42.8598 53.1555C42.8598 53.1555 46.7363 52.6813 48.4246 57.9712C48.6755 56.473 47.384 55.0228 48.5704 52.8326C47.5223 55.0818 49.2881 57.5376 49.1811 60.4824C49.0741 63.4272 46.7751 65.7612 44.4761 65.1155C42.1771 64.4697 42.2859 61.2371 44.0093 60.3034C45.7326 59.3698 45.4097 57.89 45.4097 57.89C45.4097 57.89 45.3673 58.8901 43.6642 59.7628C41.9612 60.6355 40.5995 62.9124 41.9834 65.3387C43.3672 67.765 47.7936 68.1691 49.8785 65.3387C51.9635 62.5083 53.006 57.5284 53.3473 55.9121C53.399 56.1815 53.3953 56.9158 53.3473 57.6096C53.3344 57.8089 53.6056 57.8808 53.6887 57.6982L53.6979 57.6945Z" fill="url(#paint0_linear_3548_917)"/>
<path d="M39.3854 56.2682C39.3854 56.2682 40.3356 56.7424 42.1125 55.9748C43.8893 55.2073 44.7343 56.0892 44.4262 57.152C44.1199 58.213 41.8172 59.3256 41.2932 61.0267C40.7692 62.7279 41.332 63.763 41.332 63.763C41.332 63.763 40.8836 61.4234 43.2878 59.7868C45.6919 58.1502 45.8063 57.3827 45.4484 56.0911C45.0904 54.7995 43.1845 54.5062 41.9833 55.2091C40.7821 55.9121 40.8375 56.3328 39.3835 56.2701L39.3854 56.2682Z" fill="url(#paint1_linear_3548_917)"/>
<path d="M51.0964 0C22.8774 0 0 22.8756 0 51.1001C0 79.3246 22.8756 102.2 51.0964 102.2C79.3172 102.2 102.196 79.319 102.196 51.1001C102.196 22.8811 79.3209 0 51.0964 0ZM93.3769 45.6626H85.12C84.1126 39.308 81.3708 33.5329 77.3891 28.8352L83.1864 23.0379C88.6202 29.2485 92.2827 37.057 93.3769 45.6607V45.6626ZM56.2793 8.78453C65.0177 9.84362 72.9368 13.5486 79.2194 19.0636L73.4184 24.8646C68.6507 20.798 62.7611 18.0137 56.2793 17.0377V8.78453ZM45.6017 8.82512V17.0875C39.0479 18.1355 33.114 21.0378 28.35 25.2318L22.5582 19.44C28.8297 13.7755 36.7968 9.95432 45.6017 8.82327V8.82512ZM18.6392 23.4623L24.4513 29.2744C20.6651 33.8834 18.0617 39.5018 17.0783 45.6607H8.82143C9.89159 37.2489 13.4102 29.601 18.6392 23.4623ZM8.79559 56.3383H17.0487C18.0359 62.7943 20.809 68.6636 24.8609 73.4166L19.0636 79.2139C13.5541 72.9461 9.86391 65.0472 8.79559 56.3402V56.3383ZM45.6017 93.375C37.0109 92.2698 29.2301 88.611 23.0342 83.1845L28.8352 77.3835C33.5163 81.3542 39.273 84.096 45.6017 85.1145V93.3769V93.375ZM31.1638 75.0532C29.7264 73.8557 28.3961 72.5254 27.1894 71.088C22.6615 65.6745 19.94 58.7019 19.94 51.1001C19.94 43.4983 22.5028 36.9445 26.7853 31.6084C27.9625 30.1453 29.267 28.7891 30.6785 27.5621C36.1474 22.8147 43.2842 19.9382 51.0964 19.9382C58.9085 19.9382 65.6782 22.6652 71.0844 27.1931C72.5272 28.3998 73.852 29.7301 75.0495 31.173C79.5515 36.5754 82.2583 43.5241 82.2583 51.1001C82.2583 58.6761 79.3836 66.0435 74.6399 71.518C73.4129 72.9295 72.0567 74.2339 70.5936 75.4111C65.2575 79.6991 58.4786 82.262 51.0964 82.262C43.7141 82.262 36.5662 79.5552 31.1638 75.0532ZM56.2793 93.4156V85.1625C62.5415 84.2159 68.2503 81.5867 72.9331 77.7489L78.7341 83.5499C72.5291 88.8453 64.7926 92.3805 56.2793 93.4138V93.4156ZM82.7602 79.6383L76.9684 73.8465C81.214 69.0215 84.1366 62.9899 85.1496 56.3383H93.4027C92.3122 65.2465 88.4707 73.3096 82.762 79.6364L82.7602 79.6383Z" fill="url(#paint2_linear_3548_917)"/>
<path d="M51.1203 80.8173C50.683 80.8173 50.2439 80.808 49.8048 80.7877C47.4338 80.6844 45.0868 80.3006 42.8284 79.6493L43.5388 77.1916C45.6035 77.7876 47.7493 78.1382 49.9173 78.2323C50.7698 78.2692 51.6148 78.2673 52.4506 78.2267L52.5743 80.7822C52.0945 80.8062 51.6056 80.8173 51.1222 80.8173H51.1203ZM53.6887 80.7066L53.4691 78.1585C56.4748 77.8983 59.3956 77.1455 62.1485 75.9167L63.191 78.2526C60.1779 79.5976 56.9804 80.4224 53.6887 80.7066ZM41.7564 79.3172C38.6271 78.2821 35.7082 76.7396 33.0771 74.7321L34.6307 72.6988C37.033 74.5347 39.701 75.9425 42.5591 76.889L41.7564 79.3172ZM64.2021 77.7765L63.071 75.4812C65.7741 74.1509 68.2244 72.3907 70.3555 70.2485L72.1692 72.053C69.8389 74.3945 67.1579 76.3207 64.2021 77.7765ZM32.2007 74.0347C29.6544 71.9331 27.4883 69.4422 25.7612 66.6321L27.9403 65.2926C29.5179 67.8628 31.4995 70.1397 33.828 72.0604L32.2007 74.0328V74.0347ZM72.9442 71.2449L71.064 69.5105C73.1158 67.289 74.769 64.763 75.9775 62.0083L78.3208 63.036C76.9979 66.0528 75.1897 68.8149 72.9442 71.2467V71.2449ZM25.1948 65.669C23.5711 62.7888 22.4493 59.6835 21.8607 56.4379L24.3774 55.9804C24.9162 58.9436 25.9402 61.7795 27.4237 64.4125L25.1948 65.669ZM78.7507 61.9972L76.3705 61.0599C77.472 58.2664 78.0957 55.3143 78.2285 52.2846L78.2322 52.1776L80.7877 52.2828L80.784 52.3916C80.6382 55.7073 79.9556 58.9381 78.7507 61.9972ZM21.6799 55.3327C21.4825 53.9452 21.381 52.5282 21.381 51.1204C21.381 50.6831 21.3902 50.2439 21.4105 49.803C21.4732 48.3656 21.6393 46.9264 21.905 45.5242L24.418 46.0002C24.1745 47.2825 24.0232 48.5981 23.966 49.9137C23.9475 50.3177 23.9401 50.7181 23.9401 51.1185C23.9401 52.4064 24.0324 53.7017 24.2132 54.9692L21.6799 55.3309V55.3327ZM80.8135 51.1591H78.2562V51.0798C78.2562 48.0796 77.7673 45.1293 76.8004 42.31L79.2212 41.4816C80.2784 44.5684 80.8135 47.7992 80.8135 51.0798V51.1591ZM24.6284 45.002L22.1356 44.43C22.8737 41.214 24.1357 38.1604 25.8886 35.3595L28.0566 36.7157C26.455 39.2748 25.3018 42.0628 24.6284 45.002ZM76.4517 41.3506C75.3705 38.5423 73.8354 35.9444 71.8906 33.6307L73.8483 31.9848C75.9757 34.5163 77.6547 37.3578 78.8393 40.4317L76.4517 41.3524V41.3506ZM28.6156 35.8577L26.4993 34.4204C28.3518 31.6933 30.6305 29.3057 33.2727 27.3223L34.8078 29.3685C32.3925 31.1822 30.3094 33.365 28.6138 35.8577H28.6156ZM71.2172 32.8594C69.1875 30.6194 66.8203 28.7485 64.1818 27.2946L65.4162 25.0546C68.3019 26.6433 70.8924 28.6913 73.1121 31.1416L71.2172 32.8594ZM35.6381 28.7707L34.1804 26.6691C36.8983 24.7834 39.8855 23.3756 43.0572 22.4862L43.7491 24.9494C40.8505 25.7631 38.1234 27.0492 35.6381 28.7725V28.7707ZM63.274 26.8185C60.582 25.4661 57.6999 24.5786 54.7035 24.1819L55.0412 21.6467C58.3199 22.0822 61.4769 23.0527 64.4235 24.5325L63.2758 26.8185H63.274ZM44.7381 24.6911L44.1403 22.2039C46.8231 21.56 49.5889 21.2925 52.3916 21.4142C52.9064 21.4364 53.423 21.4733 53.9286 21.5213L53.685 24.0675C53.2219 24.0232 52.7495 23.99 52.279 23.9697C49.7199 23.859 47.1884 24.1025 44.7363 24.6911H44.7381Z" fill="white"/>
<path d="M51.1001 12.1869C52.5318 12.1869 53.6924 11.0263 53.6924 9.59456C53.6924 8.16284 52.5318 7.0022 51.1001 7.0022C49.6683 7.0022 48.5077 8.16284 48.5077 9.59456C48.5077 11.0263 49.6683 12.1869 51.1001 12.1869Z" fill="#040404"/>
<path d="M53.5227 16.1889C54.9544 16.1889 56.115 15.0283 56.115 13.5966C56.115 12.1649 54.9544 11.0042 53.5227 11.0042C52.0909 11.0042 50.9303 12.1649 50.9303 13.5966C50.9303 15.0283 52.0909 16.1889 53.5227 16.1889Z" fill="#040404"/>
<path d="M48.6092 16.1889C50.0409 16.1889 51.2016 15.0283 51.2016 13.5966C51.2016 12.1649 50.0409 11.0042 48.6092 11.0042C47.1775 11.0042 46.0168 12.1649 46.0168 13.5966C46.0168 15.0283 47.1775 16.1889 48.6092 16.1889Z" fill="#040404"/>
<path d="M50.6333 13.9896C50.6333 13.9896 50.9175 16.248 49.3491 17.6097H52.7736C52.7736 17.6097 51.3714 16.3919 51.7219 14.0818C51.8252 11.9784 51.7016 10.3695 51.7016 10.3695L50.2366 10.6998L50.6333 13.9896Z" fill="#040404"/>
<path d="M55.8752 90.0078C55.211 87.8951 52.5079 85.9504 51.1001 84.299C49.6941 85.9522 46.9892 87.8951 46.325 90.0078C45.9689 91.1425 46.5077 92.8178 47.4616 93.4175C49.5539 94.7312 51.1001 93.5891 51.1001 93.5891C51.1001 93.5891 52.6445 94.7312 54.7387 93.4175C55.6944 92.8178 56.2313 91.1425 55.8752 90.0078Z" fill="#040404"/>
<path d="M89.4265 55.4563C91.2457 54.8844 92.9211 52.554 94.3455 51.3436C92.9211 50.1314 91.2476 47.801 89.4265 47.2309C88.4486 46.9246 87.0057 47.3877 86.4891 48.2106C85.358 50.0133 86.3415 51.3455 86.3415 51.3455C86.3415 51.3455 85.3562 52.6758 86.4891 54.4803C87.0057 55.3032 88.4486 55.7663 89.4265 55.46V55.4563Z" fill="#040404"/>
<path d="M86.657 51.102C86.657 51.102 84.9706 51.2348 83.9558 50.065V52.6205C83.9558 52.6205 85.2861 51.1665 87.0095 51.4285C88.5796 51.506 89.3601 51.8197 89.3601 51.8197L89.1129 50.7274L86.657 51.102Z" fill="#040404"/>
<path d="M13.2773 46.515C13.2773 46.515 13.6703 49.255 17.2941 51.1019C15.6335 52.1924 14.211 53.3751 13.2773 55.7571C12.1002 53.4323 11.1038 52.2607 9.10925 51.2883C11.5854 49.8085 12.733 48.3896 13.2773 46.5169V46.515Z" fill="#040404"/>
<path d="M51.0963 0.84137C23.3423 0.84137 0.841309 23.3424 0.841309 51.1019C0.841309 78.8615 23.3423 101.362 51.0963 101.362C78.8503 101.362 101.357 78.8615 101.357 51.1019C101.357 23.3424 78.8559 0.84137 51.0963 0.84137ZM51.0963 97.508C25.4679 97.508 4.69019 76.7304 4.69019 51.1019C4.69019 25.4735 25.4679 4.69579 51.0963 4.69579C76.7248 4.69579 97.508 25.4735 97.508 51.1019C97.508 76.7304 76.7303 97.508 51.0963 97.508Z" fill="#FD0100"/>
<defs>
<linearGradient id="paint0_linear_3548_917" x1="50.9395" y1="24.8867" x2="50.9395" y2="75.1307" gradientUnits="userSpaceOnUse">
<stop stop-color="#9A420F"/>
<stop offset="0.16" stop-color="#A03C22"/>
<stop offset="0.2" stop-color="#A24024"/>
<stop offset="0.24" stop-color="#A94D2A"/>
<stop offset="0.29" stop-color="#B66335"/>
<stop offset="0.34" stop-color="#C78244"/>
<stop offset="0.39" stop-color="#DDAA57"/>
<stop offset="0.44" stop-color="#F8DA6E"/>
<stop offset="0.45" stop-color="#FEE473"/>
<stop offset="0.52" stop-color="#FEF1BA"/>
<stop offset="0.58" stop-color="white"/>
<stop offset="0.62" stop-color="#FEF2B3"/>
<stop offset="0.65" stop-color="#FDE978"/>
<stop offset="0.67" stop-color="#FDE662"/>
<stop offset="0.7" stop-color="#DCB854"/>
<stop offset="0.74" stop-color="#B98846"/>
<stop offset="0.78" stop-color="#9E613B"/>
<stop offset="0.82" stop-color="#8B4633"/>
<stop offset="0.85" stop-color="#7F352E"/>
<stop offset="0.87" stop-color="#7B302D"/>
<stop offset="1" stop-color="#9F420E"/>
</linearGradient>
<linearGradient id="paint1_linear_3548_917" x1="42.4925" y1="-20.012" x2="42.4925" y2="75.1307" gradientUnits="userSpaceOnUse">
<stop stop-color="#9A420F"/>
<stop offset="0.16" stop-color="#A03C22"/>
<stop offset="0.2" stop-color="#A24024"/>
<stop offset="0.24" stop-color="#A94D2A"/>
<stop offset="0.29" stop-color="#B66335"/>
<stop offset="0.34" stop-color="#C78244"/>
<stop offset="0.39" stop-color="#DDAA57"/>
<stop offset="0.44" stop-color="#F8DA6E"/>
<stop offset="0.45" stop-color="#FEE473"/>
<stop offset="0.52" stop-color="#FEF1BA"/>
<stop offset="0.58" stop-color="white"/>
<stop offset="0.62" stop-color="#FEF2B3"/>
<stop offset="0.65" stop-color="#FDE978"/>
<stop offset="0.67" stop-color="#FDE662"/>
<stop offset="0.7" stop-color="#DCB854"/>
<stop offset="0.74" stop-color="#B98846"/>
<stop offset="0.78" stop-color="#9E613B"/>
<stop offset="0.82" stop-color="#8B4633"/>
<stop offset="0.85" stop-color="#7F352E"/>
<stop offset="0.87" stop-color="#7B302D"/>
<stop offset="1" stop-color="#9F420E"/>
</linearGradient>
<linearGradient id="paint2_linear_3548_917" x1="47.5501" y1="-27.4643" x2="54.1297" y2="118.168" gradientUnits="userSpaceOnUse">
<stop stop-color="#9A420F"/>
<stop offset="0.16" stop-color="#A03C22"/>
<stop offset="0.2" stop-color="#A24024"/>
<stop offset="0.24" stop-color="#A94D2A"/>
<stop offset="0.29" stop-color="#B66335"/>
<stop offset="0.34" stop-color="#C78244"/>
<stop offset="0.39" stop-color="#DDAA57"/>
<stop offset="0.44" stop-color="#F8DA6E"/>
<stop offset="0.45" stop-color="#FEE473"/>
<stop offset="0.52" stop-color="#FEF1BA"/>
<stop offset="0.58" stop-color="white"/>
<stop offset="0.62" stop-color="#FEF2B3"/>
<stop offset="0.65" stop-color="#FDE978"/>
<stop offset="0.67" stop-color="#FDE662"/>
<stop offset="0.7" stop-color="#DCB854"/>
<stop offset="0.74" stop-color="#B98846"/>
<stop offset="0.78" stop-color="#9E613B"/>
<stop offset="0.82" stop-color="#8B4633"/>
<stop offset="0.85" stop-color="#7F352E"/>
<stop offset="0.87" stop-color="#7B302D"/>
<stop offset="1" stop-color="#9F420E"/>
</linearGradient>
</defs>
</svg>
