<svg width="103" height="103" viewBox="0 0 103 103" fill="none" xmlns="http://www.w3.org/2000/svg">
<path d="M51.1001 99.951C78.0787 99.951 99.9491 78.0805 99.9491 51.1019C99.9491 24.1233 78.0787 2.25287 51.1001 2.25287C24.1215 2.25287 2.25104 24.1233 2.25104 51.1019C2.25104 78.0805 24.1215 99.951 51.1001 99.951Z" fill="#040404"/>
<path d="M53.698 57.6945C54.4766 55.9859 56.1206 52.9747 59.1668 52.9599C58.9731 50.3639 58.8569 49.9764 58.8569 49.9764C58.8569 49.9764 59.3809 51.8363 59.4381 52.8049C60.7167 51.7772 63.2943 51.0613 65.407 53.0577C64.7667 50.6554 65.0195 47.6516 65.407 45.2087C65.7944 42.7676 65.407 39.4335 64.9605 38.4058C66.4531 40.9631 66.1819 44.1809 65.7944 46.0611C65.407 47.9413 65.2704 50.3823 65.6782 51.4285C67.1893 49.9174 70.1747 49.3159 72.4995 50.886C74.8244 52.4562 75.0568 55.0726 75.0568 55.0726C75.0568 55.0726 76.306 52.1721 74.1177 46.9615C71.9276 41.7509 67.0879 36.8485 62.9548 35.2746C64.0951 37.1253 65.0509 44.0315 58.7609 45.3581C59.1927 46.7143 59.1318 46.9615 59.1318 46.9615C59.1318 46.9615 58.331 44.3415 55.8014 43.5388C57.0653 44.8341 57.1575 47.301 55.6169 47.7936C54.5061 48.2863 53.9618 48.207 53.9618 48.207C53.9618 48.207 54.5375 49.6757 53.7035 51.2772C54.1666 49.0871 53.6112 47.4542 52.7477 46.4357C51.8842 45.419 51.923 44.7751 51.923 44.7751C51.923 44.7751 51.3362 44.4983 51.4008 43.7639C51.7588 44.4965 52.3141 44.692 52.6223 44.6773C52.9156 45.7862 53.34 46.0629 53.34 46.0629L54.5467 45.0684L54.3511 44.1717L53.96 44.1551L53.8954 43.3248L53.5854 43.4872L53.7478 42.6717L53.3732 42.9152C53.3732 42.9152 53.5725 41.7436 52.6758 40.7343C51.7791 39.7232 51.2735 39.3486 51.4691 38.3394C50.72 39.7896 51.3953 40.9631 51.3953 40.9631C51.3953 40.9631 50.9801 40.7195 50.9469 40.4409C49.8878 40.5867 49.1701 41.1421 49.1701 41.1421L49.3823 41.7454C49.3823 41.7454 48.5667 42.1034 48.3712 42.7713C48.1756 43.4392 47.849 43.489 47.849 43.489C47.849 43.489 48.3379 43.7492 48.7125 43.3912C48.7457 44.4171 47.6036 44.8415 47.5224 45.2326C48.0114 45.4928 48.6313 45.1515 48.6313 45.1515C48.6313 45.1515 48.5169 46.2272 47.5224 46.6515C48.0114 47.384 48.3213 46.9929 48.3213 46.9929C48.3213 46.9929 47.0722 47.908 46.1921 47.7604C45.312 47.6147 44.9153 45.9652 44.9153 45.9652C44.9153 45.9652 45.4042 45.2326 45.3544 44.8249C45.3046 44.4171 45.7622 43.6348 46.4781 43.4724C44.9946 43.2934 43.43 45.4448 43.43 45.4448C43.43 45.4448 42.8266 46.3895 42.7787 47.0095C42.9097 45.8194 43.0388 45.3803 43.0388 45.3803C43.0388 45.3803 39.3726 45.2585 38.4906 41.0221C37.6087 36.7858 39.2213 34.6676 39.2213 34.6676C39.2213 34.6676 24.5896 43.0499 26.6525 54.9582C27.7134 50.2421 33.3059 48.4524 36.0717 51.3252C36.8983 49.9598 36.0717 46.2622 35.8927 43.9263C35.7138 41.5923 35.7488 39.5091 37.0053 37.8209C36.1437 39.5811 36.1437 42.203 36.5385 44.9319C36.9334 47.6608 37.4002 50.4617 36.3595 52.9765C38.3356 51.5761 40.9225 51.6702 42.6458 52.8548C42.6458 51.5263 43.0019 50.2458 43.3266 49.8509C42.6809 51.2883 42.8598 53.1555 42.8598 53.1555C42.8598 53.1555 46.7364 52.6813 48.4247 57.9712C48.6756 56.473 47.384 55.0228 48.5704 52.8326C47.5224 55.0818 49.2882 57.5376 49.1812 60.4824C49.0741 63.4272 46.7751 65.7612 44.4761 65.1155C42.1771 64.4697 42.286 61.2371 44.0093 60.3034C45.7327 59.3698 45.4098 57.89 45.4098 57.89C45.4098 57.89 45.3673 58.8901 43.6643 59.7628C41.9613 60.6355 40.5996 62.9124 41.9834 65.3387C43.3672 67.765 47.7936 68.1691 49.8786 65.3387C51.9636 62.5083 53.006 57.5284 53.3474 55.9121C53.3991 56.1815 53.3954 56.9158 53.3474 57.6096C53.3345 57.8089 53.6057 57.8808 53.6887 57.6982L53.698 57.6945Z" fill="url(#paint0_linear_3548_969)"/>
<path d="M39.3855 56.2682C39.3855 56.2682 40.3357 56.7424 42.1126 55.9748C43.8894 55.2073 44.7345 56.0892 44.4263 57.152C44.12 58.213 41.8174 59.3256 41.2933 61.0267C40.7693 62.7279 41.3321 63.763 41.3321 63.763C41.3321 63.763 40.8837 61.4234 43.2879 59.7868C45.6921 58.1502 45.8065 57.3827 45.4485 56.0911C45.0906 54.7995 43.1846 54.5062 41.9834 55.2091C40.7823 55.9121 40.8376 56.3328 39.3837 56.2701L39.3855 56.2682Z" fill="url(#paint1_linear_3548_969)"/>
<path d="M51.0964 0C22.8774 0 0 22.8756 0 51.1001C0 79.3246 22.8756 102.2 51.0964 102.2C79.3172 102.2 102.196 79.319 102.196 51.1001C102.196 22.8811 79.3209 0 51.0964 0ZM93.3769 45.6626H85.12C84.1126 39.308 81.3708 33.5329 77.3891 28.8352L83.1864 23.0379C88.6202 29.2485 92.2827 37.057 93.3769 45.6607V45.6626ZM56.2793 8.78453C65.0177 9.84362 72.9368 13.5486 79.2194 19.0636L73.4184 24.8646C68.6507 20.798 62.7611 18.0137 56.2793 17.0377V8.78453ZM45.6017 8.82512V17.0875C39.0479 18.1355 33.114 21.0378 28.35 25.2318L22.5582 19.44C28.8297 13.7755 36.7968 9.95432 45.6017 8.82327V8.82512ZM18.6392 23.4623L24.4513 29.2744C20.6651 33.8834 18.0617 39.5018 17.0783 45.6607H8.82143C9.89159 37.2489 13.4102 29.601 18.6392 23.4623ZM8.79559 56.3383H17.0487C18.0359 62.7943 20.809 68.6636 24.8609 73.4166L19.0636 79.2139C13.5541 72.9461 9.86391 65.0472 8.79559 56.3402V56.3383ZM45.6017 93.375C37.0109 92.2698 29.2301 88.611 23.0342 83.1845L28.8352 77.3835C33.5163 81.3542 39.273 84.096 45.6017 85.1145V93.3769V93.375ZM31.1638 75.0532C29.7264 73.8557 28.3961 72.5254 27.1894 71.088C22.6615 65.6745 19.94 58.7019 19.94 51.1001C19.94 43.4983 22.5028 36.9445 26.7853 31.6084C27.9625 30.1453 29.267 28.7891 30.6785 27.5621C36.1474 22.8147 43.2842 19.9382 51.0964 19.9382C58.9085 19.9382 65.6782 22.6652 71.0844 27.1931C72.5272 28.3998 73.852 29.7301 75.0495 31.173C79.5515 36.5754 82.2583 43.5241 82.2583 51.1001C82.2583 58.6761 79.3836 66.0435 74.6399 71.518C73.4129 72.9295 72.0567 74.2339 70.5936 75.4111C65.2575 79.6991 58.4786 82.262 51.0964 82.262C43.7141 82.262 36.5662 79.5552 31.1638 75.0532ZM56.2793 93.4156V85.1625C62.5415 84.2159 68.2503 81.5867 72.9331 77.7489L78.7341 83.5499C72.5291 88.8453 64.7926 92.3805 56.2793 93.4138V93.4156ZM82.7602 79.6383L76.9684 73.8465C81.214 69.0215 84.1366 62.9899 85.1496 56.3383H93.4027C92.3122 65.2465 88.4707 73.3096 82.762 79.6364L82.7602 79.6383Z" fill="url(#paint2_linear_3548_969)"/>
<path d="M51.1203 80.8173C50.683 80.8173 50.2439 80.808 49.8048 80.7877C47.4338 80.6844 45.0868 80.3006 42.8284 79.6493L43.5388 77.1916C45.6035 77.7876 47.7493 78.1382 49.9173 78.2323C50.7698 78.2692 51.6148 78.2673 52.4506 78.2267L52.5743 80.7822C52.0945 80.8062 51.6056 80.8173 51.1222 80.8173H51.1203ZM53.6887 80.7066L53.4691 78.1585C56.4748 77.8983 59.3956 77.1455 62.1485 75.9167L63.191 78.2526C60.1779 79.5976 56.9804 80.4224 53.6887 80.7066ZM41.7564 79.3172C38.6271 78.2821 35.7082 76.7396 33.0771 74.7321L34.6307 72.6988C37.033 74.5347 39.701 75.9425 42.5591 76.889L41.7564 79.3172ZM64.2021 77.7765L63.071 75.4812C65.7741 74.1509 68.2244 72.3907 70.3555 70.2485L72.1692 72.053C69.8389 74.3945 67.1579 76.3207 64.2021 77.7765ZM32.2007 74.0347C29.6544 71.9331 27.4883 69.4422 25.7612 66.6321L27.9403 65.2926C29.5179 67.8628 31.4995 70.1397 33.828 72.0604L32.2007 74.0328V74.0347ZM72.9442 71.2449L71.064 69.5105C73.1158 67.289 74.769 64.763 75.9775 62.0083L78.3208 63.036C76.9979 66.0528 75.1897 68.8149 72.9442 71.2467V71.2449ZM25.1948 65.669C23.5711 62.7888 22.4493 59.6835 21.8607 56.4379L24.3774 55.9804C24.9162 58.9436 25.9402 61.7795 27.4237 64.4125L25.1948 65.669ZM78.7507 61.9972L76.3705 61.0599C77.472 58.2664 78.0957 55.3143 78.2285 52.2846L78.2322 52.1776L80.7877 52.2828L80.784 52.3916C80.6382 55.7073 79.9556 58.9381 78.7507 61.9972ZM21.6799 55.3327C21.4825 53.9452 21.381 52.5282 21.381 51.1204C21.381 50.6831 21.3902 50.2439 21.4105 49.803C21.4732 48.3656 21.6393 46.9264 21.905 45.5242L24.418 46.0002C24.1745 47.2825 24.0232 48.5981 23.966 49.9137C23.9475 50.3177 23.9401 50.7181 23.9401 51.1185C23.9401 52.4064 24.0324 53.7017 24.2132 54.9692L21.6799 55.3309V55.3327ZM80.8135 51.1591H78.2562V51.0798C78.2562 48.0796 77.7673 45.1293 76.8004 42.31L79.2212 41.4816C80.2784 44.5684 80.8135 47.7992 80.8135 51.0798V51.1591ZM24.6284 45.002L22.1356 44.43C22.8737 41.214 24.1357 38.1604 25.8886 35.3595L28.0566 36.7157C26.455 39.2748 25.3018 42.0628 24.6284 45.002ZM76.4517 41.3506C75.3705 38.5423 73.8354 35.9444 71.8906 33.6307L73.8483 31.9848C75.9757 34.5163 77.6547 37.3578 78.8393 40.4317L76.4517 41.3524V41.3506ZM28.6156 35.8577L26.4993 34.4204C28.3518 31.6933 30.6305 29.3057 33.2727 27.3223L34.8078 29.3685C32.3925 31.1822 30.3094 33.365 28.6138 35.8577H28.6156ZM71.2172 32.8594C69.1875 30.6194 66.8203 28.7485 64.1818 27.2946L65.4162 25.0546C68.3019 26.6433 70.8924 28.6913 73.1121 31.1416L71.2172 32.8594ZM35.6381 28.7707L34.1804 26.6691C36.8983 24.7834 39.8855 23.3756 43.0572 22.4862L43.7491 24.9494C40.8505 25.7631 38.1234 27.0492 35.6381 28.7725V28.7707ZM63.274 26.8185C60.582 25.4661 57.6999 24.5786 54.7035 24.1819L55.0412 21.6467C58.3199 22.0822 61.4769 23.0527 64.4235 24.5325L63.2758 26.8185H63.274ZM44.7381 24.6911L44.1403 22.2039C46.8231 21.56 49.5889 21.2925 52.3916 21.4142C52.9064 21.4364 53.423 21.4733 53.9286 21.5213L53.685 24.0675C53.2219 24.0232 52.7495 23.99 52.279 23.9697C49.7199 23.859 47.1884 24.1025 44.7363 24.6911H44.7381Z" fill="white"/>
<path d="M51.1 12.1869C52.5317 12.1869 53.6924 11.0263 53.6924 9.59456C53.6924 8.16284 52.5317 7.0022 51.1 7.0022C49.6683 7.0022 48.5076 8.16284 48.5076 9.59456C48.5076 11.0263 49.6683 12.1869 51.1 12.1869Z" fill="#040404"/>
<path d="M53.5227 16.1889C54.9544 16.1889 56.115 15.0283 56.115 13.5966C56.115 12.1649 54.9544 11.0042 53.5227 11.0042C52.0909 11.0042 50.9303 12.1649 50.9303 13.5966C50.9303 15.0283 52.0909 16.1889 53.5227 16.1889Z" fill="#040404"/>
<path d="M48.6091 16.1889C50.0409 16.1889 51.2015 15.0283 51.2015 13.5966C51.2015 12.1649 50.0409 11.0042 48.6091 11.0042C47.1774 11.0042 46.0168 12.1649 46.0168 13.5966C46.0168 15.0283 47.1774 16.1889 48.6091 16.1889Z" fill="#040404"/>
<path d="M50.6332 13.9896C50.6332 13.9896 50.9174 16.248 49.3491 17.6097H52.7736C52.7736 17.6097 51.3713 16.3919 51.7219 14.0818C51.8252 11.9784 51.7016 10.3695 51.7016 10.3695L50.2366 10.6998L50.6332 13.9896Z" fill="#040404"/>
<path d="M55.8752 90.0078C55.2109 87.8951 52.5079 85.9504 51.1001 84.299C49.6941 85.9522 46.9892 87.8951 46.3249 90.0078C45.9688 91.1425 46.5076 92.8178 47.4615 93.4175C49.5539 94.7312 51.1001 93.5891 51.1001 93.5891C51.1001 93.5891 52.6444 94.7312 54.7386 93.4175C55.6944 92.8178 56.2313 91.1425 55.8752 90.0078Z" fill="#040404"/>
<path d="M89.4265 55.4563C91.2457 54.8844 92.9211 52.554 94.3455 51.3436C92.9211 50.1314 91.2476 47.801 89.4265 47.2309C88.4486 46.9246 87.0057 47.3877 86.4891 48.2106C85.358 50.0133 86.3415 51.3455 86.3415 51.3455C86.3415 51.3455 85.3562 52.6758 86.4891 54.4803C87.0057 55.3032 88.4486 55.7663 89.4265 55.46V55.4563Z" fill="#040404"/>
<path d="M86.657 51.102C86.657 51.102 84.9706 51.2348 83.9558 50.065V52.6205C83.9558 52.6205 85.2861 51.1665 87.0095 51.4285C88.5796 51.506 89.3601 51.8197 89.3601 51.8197L89.1129 50.7274L86.657 51.102Z" fill="#040404"/>
<path d="M13.2773 46.515C13.2773 46.515 13.6703 49.255 17.2941 51.1019C15.6335 52.1924 14.211 53.3751 13.2773 55.7571C12.1002 53.4323 11.1038 52.2607 9.10925 51.2883C11.5854 49.8085 12.733 48.3896 13.2773 46.5169V46.515Z" fill="#040404"/>
<path d="M51.0964 0.84137C23.3424 0.84137 0.84137 23.3424 0.84137 51.1019C0.84137 78.8615 23.3424 101.362 51.0964 101.362C78.8504 101.362 101.357 78.8615 101.357 51.1019C101.357 23.3424 78.8559 0.84137 51.0964 0.84137ZM51.0964 97.508C25.4679 97.508 4.69025 76.7304 4.69025 51.1019C4.69025 25.4735 25.4679 4.69579 51.0964 4.69579C76.7248 4.69579 97.508 25.4735 97.508 51.1019C97.508 76.7304 76.7304 97.508 51.0964 97.508Z" fill="#FD0100"/>
<defs>
<linearGradient id="paint0_linear_3548_969" x1="50.9395" y1="24.8867" x2="50.9395" y2="75.1307" gradientUnits="userSpaceOnUse">
<stop stop-color="#9A420F"/>
<stop offset="0.16" stop-color="#A03C22"/>
<stop offset="0.2" stop-color="#A24024"/>
<stop offset="0.24" stop-color="#A94D2A"/>
<stop offset="0.29" stop-color="#B66335"/>
<stop offset="0.34" stop-color="#C78244"/>
<stop offset="0.39" stop-color="#DDAA57"/>
<stop offset="0.44" stop-color="#F8DA6E"/>
<stop offset="0.45" stop-color="#FEE473"/>
<stop offset="0.52" stop-color="#FEF1BA"/>
<stop offset="0.58" stop-color="white"/>
<stop offset="0.62" stop-color="#FEF2B3"/>
<stop offset="0.65" stop-color="#FDE978"/>
<stop offset="0.67" stop-color="#FDE662"/>
<stop offset="0.7" stop-color="#DCB854"/>
<stop offset="0.74" stop-color="#B98846"/>
<stop offset="0.78" stop-color="#9E613B"/>
<stop offset="0.82" stop-color="#8B4633"/>
<stop offset="0.85" stop-color="#7F352E"/>
<stop offset="0.87" stop-color="#7B302D"/>
<stop offset="1" stop-color="#9F420E"/>
</linearGradient>
<linearGradient id="paint1_linear_3548_969" x1="42.4927" y1="-20.012" x2="42.4927" y2="75.1307" gradientUnits="userSpaceOnUse">
<stop stop-color="#9A420F"/>
<stop offset="0.16" stop-color="#A03C22"/>
<stop offset="0.2" stop-color="#A24024"/>
<stop offset="0.24" stop-color="#A94D2A"/>
<stop offset="0.29" stop-color="#B66335"/>
<stop offset="0.34" stop-color="#C78244"/>
<stop offset="0.39" stop-color="#DDAA57"/>
<stop offset="0.44" stop-color="#F8DA6E"/>
<stop offset="0.45" stop-color="#FEE473"/>
<stop offset="0.52" stop-color="#FEF1BA"/>
<stop offset="0.58" stop-color="white"/>
<stop offset="0.62" stop-color="#FEF2B3"/>
<stop offset="0.65" stop-color="#FDE978"/>
<stop offset="0.67" stop-color="#FDE662"/>
<stop offset="0.7" stop-color="#DCB854"/>
<stop offset="0.74" stop-color="#B98846"/>
<stop offset="0.78" stop-color="#9E613B"/>
<stop offset="0.82" stop-color="#8B4633"/>
<stop offset="0.85" stop-color="#7F352E"/>
<stop offset="0.87" stop-color="#7B302D"/>
<stop offset="1" stop-color="#9F420E"/>
</linearGradient>
<linearGradient id="paint2_linear_3548_969" x1="47.5501" y1="-27.4643" x2="54.1297" y2="118.168" gradientUnits="userSpaceOnUse">
<stop stop-color="#9A420F"/>
<stop offset="0.16" stop-color="#A03C22"/>
<stop offset="0.2" stop-color="#A24024"/>
<stop offset="0.24" stop-color="#A94D2A"/>
<stop offset="0.29" stop-color="#B66335"/>
<stop offset="0.34" stop-color="#C78244"/>
<stop offset="0.39" stop-color="#DDAA57"/>
<stop offset="0.44" stop-color="#F8DA6E"/>
<stop offset="0.45" stop-color="#FEE473"/>
<stop offset="0.52" stop-color="#FEF1BA"/>
<stop offset="0.58" stop-color="white"/>
<stop offset="0.62" stop-color="#FEF2B3"/>
<stop offset="0.65" stop-color="#FDE978"/>
<stop offset="0.67" stop-color="#FDE662"/>
<stop offset="0.7" stop-color="#DCB854"/>
<stop offset="0.74" stop-color="#B98846"/>
<stop offset="0.78" stop-color="#9E613B"/>
<stop offset="0.82" stop-color="#8B4633"/>
<stop offset="0.85" stop-color="#7F352E"/>
<stop offset="0.87" stop-color="#7B302D"/>
<stop offset="1" stop-color="#9F420E"/>
</linearGradient>
</defs>
</svg>
